<svg width="421" height="257" viewBox="0 0 421 257" fill="none" xmlns="http://www.w3.org/2000/svg">
<rect x="0.406342" y="0.406342" width="419.687" height="59.1031" rx="15.0249" fill="white"/>
<rect x="0.406342" y="0.406342" width="419.687" height="59.1031" rx="15.0249" stroke="#D0D5DD" stroke-width="0.812685"/>
<path d="M32.0584 17.7676L44.2487 25.6913M32.0584 17.7676L19.8682 25.6913M32.0584 17.7676V25.6913M44.2487 25.6913V34.2244M44.2487 25.6913L32.0584 34.2244M44.2487 34.2244L32.0584 42.1481M44.2487 34.2244L32.0584 25.6913M32.0584 42.1481L19.8682 34.2244M32.0584 42.1481V34.2244M19.8682 34.2244V25.6913M19.8682 34.2244L32.0584 25.6913M19.8682 25.6913L32.0584 34.2244" stroke="#101828" stroke-width="2.43806" stroke-linecap="round" stroke-linejoin="round"/>
<path d="M57.8311 35.958V23.2816H65.692V24.9281H59.7437V28.7904H65.1287V30.4307H59.7437V35.958H57.8311ZM67.5319 35.958H65.5017L70.0634 23.2816H72.2731L76.8349 35.958H74.8047L71.2209 25.5842H71.1219L67.5319 35.958ZM67.8723 30.9939H74.4581V32.6032H67.8723V30.9939ZM79.7363 35.958H77.7061L82.2679 23.2816H84.4776L89.0394 35.958H87.0092L83.4254 25.5842H83.3263L79.7363 35.958ZM80.0768 30.9939H86.6625V32.6032H80.0768V30.9939ZM101.101 23.2816V35.958H99.3436L92.9002 26.6612H92.7826V35.958H90.87V23.2816H92.6402L99.0898 32.5908H99.2074V23.2816H101.101ZM107.729 39.7213C106.974 39.7213 106.324 39.6223 105.779 39.4242C105.239 39.2261 104.797 38.9641 104.455 38.6381C104.112 38.3121 103.856 37.9552 103.687 37.5673L105.278 36.9112C105.389 37.0928 105.538 37.2847 105.724 37.4869C105.913 37.6932 106.169 37.8685 106.491 38.013C106.817 38.1574 107.236 38.2296 107.748 38.2296C108.449 38.2296 109.029 38.0584 109.487 37.7159C109.945 37.3775 110.174 36.8369 110.174 36.0942V34.2249H110.056C109.945 34.4271 109.784 34.652 109.574 34.8996C109.367 35.1472 109.082 35.3617 108.719 35.5433C108.356 35.7249 107.884 35.8156 107.302 35.8156C106.551 35.8156 105.874 35.6403 105.272 35.2895C104.673 34.9347 104.199 34.4127 103.848 33.7235C103.501 33.0303 103.328 32.1782 103.328 31.1672C103.328 30.1562 103.499 29.2897 103.842 28.5676C104.189 27.8454 104.663 27.2925 105.266 26.9087C105.868 26.5209 106.551 26.3269 107.314 26.3269C107.904 26.3269 108.381 26.4259 108.744 26.624C109.107 26.818 109.39 27.0449 109.592 27.3049C109.798 27.5648 109.957 27.7939 110.069 27.9919H110.205V26.4507H112.018V36.1685C112.018 36.9855 111.829 37.656 111.449 38.1801C111.069 38.7041 110.556 39.092 109.908 39.3437C109.264 39.5955 108.538 39.7213 107.729 39.7213ZM107.71 34.2806C108.243 34.2806 108.693 34.1568 109.06 33.9092C109.431 33.6575 109.712 33.2985 109.902 32.8322C110.096 32.3618 110.192 31.7986 110.192 31.1425C110.192 30.5029 110.098 29.9396 109.908 29.4527C109.718 28.9658 109.439 28.5861 109.072 28.3138C108.705 28.0373 108.251 27.8991 107.71 27.8991C107.153 27.8991 106.689 28.0435 106.318 28.3324C105.946 28.6171 105.666 29.005 105.476 29.496C105.29 29.9871 105.197 30.5359 105.197 31.1425C105.197 31.7656 105.292 32.3123 105.482 32.7827C105.672 33.2531 105.953 33.6204 106.324 33.8845C106.699 34.1486 107.162 34.2806 107.71 34.2806ZM119.113 35.958V26.4507H120.964V35.958H119.113ZM120.048 24.9838C119.726 24.9838 119.45 24.8765 119.219 24.6619C118.992 24.4432 118.878 24.1832 118.878 23.882C118.878 23.5766 118.992 23.3167 119.219 23.1021C119.45 22.8834 119.726 22.7741 120.048 22.7741C120.37 22.7741 120.644 22.8834 120.871 23.1021C121.102 23.3167 121.218 23.5766 121.218 23.882C121.218 24.1832 121.102 24.4432 120.871 24.6619C120.644 24.8765 120.37 24.9838 120.048 24.9838ZM125.305 30.313V35.958H123.454V26.4507H125.23V27.9981H125.348C125.567 27.4947 125.909 27.0903 126.375 26.7849C126.846 26.4796 127.438 26.3269 128.152 26.3269C128.8 26.3269 129.367 26.4631 129.854 26.7354C130.341 27.0036 130.718 27.4039 130.987 27.9362C131.255 28.4685 131.389 29.1267 131.389 29.9107V35.958H129.538V30.1335C129.538 29.4444 129.359 28.9059 129 28.518C128.641 28.126 128.148 27.93 127.52 27.93C127.091 27.93 126.71 28.0229 126.375 28.2086C126.045 28.3943 125.783 28.6666 125.589 29.0256C125.399 29.3805 125.305 29.8096 125.305 30.313ZM138.309 26.4507V27.9362H133.116V26.4507H138.309ZM134.509 24.1729H136.359V33.1665C136.359 33.5255 136.413 33.7958 136.52 33.9773C136.627 34.1548 136.766 34.2765 136.935 34.3425C137.108 34.4044 137.296 34.4354 137.498 34.4354C137.647 34.4354 137.777 34.425 137.888 34.4044C137.999 34.3838 138.086 34.3673 138.148 34.3549L138.482 35.8837C138.375 35.925 138.222 35.9663 138.024 36.0075C137.826 36.0529 137.579 36.0777 137.281 36.0818C136.795 36.0901 136.341 36.0034 135.92 35.8218C135.499 35.6403 135.158 35.3597 134.898 34.98C134.639 34.6004 134.509 34.1238 134.509 33.5502V24.1729ZM144.352 36.1499C143.415 36.1499 142.608 35.9498 141.931 35.5495C141.259 35.1451 140.739 34.5777 140.372 33.8473C140.009 33.1128 139.827 32.2525 139.827 31.2663C139.827 30.2924 140.009 29.4341 140.372 28.6914C140.739 27.9486 141.251 27.3688 141.907 26.9521C142.567 26.5353 143.339 26.3269 144.222 26.3269C144.758 26.3269 145.278 26.4156 145.781 26.5931C146.285 26.7705 146.737 27.049 147.137 27.4287C147.537 27.8083 147.853 28.3014 148.084 28.908C148.315 29.5105 148.431 30.2429 148.431 31.1053V31.7614H140.873V30.3749H146.617C146.617 29.888 146.518 29.4568 146.32 29.0813C146.122 28.7017 145.843 28.4025 145.484 28.1838C145.129 27.9651 144.713 27.8558 144.234 27.8558C143.714 27.8558 143.26 27.9837 142.872 28.2395C142.489 28.4912 142.191 28.8213 141.981 29.2299C141.775 29.6342 141.671 30.0737 141.671 30.5483V31.6314C141.671 32.2669 141.783 32.8075 142.006 33.2531C142.233 33.6988 142.548 34.0392 142.953 34.2744C143.357 34.5055 143.83 34.621 144.37 34.621C144.721 34.621 145.041 34.5715 145.33 34.4725C145.618 34.3693 145.868 34.2167 146.079 34.0145C146.289 33.8123 146.45 33.5626 146.561 33.2655L148.313 33.5812C148.173 34.097 147.921 34.5488 147.558 34.9367C147.199 35.3205 146.747 35.6196 146.202 35.8342C145.662 36.0447 145.045 36.1499 144.352 36.1499ZM150.484 35.958V26.4507H152.273V27.961H152.372C152.545 27.4493 152.851 27.047 153.288 26.754C153.729 26.4569 154.229 26.3083 154.786 26.3083C154.901 26.3083 155.038 26.3125 155.194 26.3207C155.355 26.329 155.481 26.3393 155.572 26.3517V28.1219C155.498 28.1013 155.366 28.0786 155.176 28.0538C154.986 28.0249 154.796 28.0105 154.606 28.0105C154.169 28.0105 153.779 28.1033 153.436 28.289C153.098 28.4706 152.83 28.7244 152.632 29.0504C152.434 29.3722 152.335 29.7395 152.335 30.1521V35.958H150.484ZM165.596 26.4507L162.148 35.958H160.168L156.714 26.4507H158.701L161.109 33.7669H161.208L163.609 26.4507H165.596ZM167.335 35.958V26.4507H169.186V35.958H167.335ZM168.27 24.9838C167.948 24.9838 167.672 24.8765 167.441 24.6619C167.214 24.4432 167.1 24.1832 167.1 23.882C167.1 23.5766 167.214 23.3167 167.441 23.1021C167.672 22.8834 167.948 22.7741 168.27 22.7741C168.592 22.7741 168.866 22.8834 169.093 23.1021C169.324 23.3167 169.44 23.5766 169.44 23.882C169.44 24.1832 169.324 24.4432 169.093 24.6619C168.866 24.8765 168.592 24.9838 168.27 24.9838ZM175.773 36.1499C174.837 36.1499 174.03 35.9498 173.353 35.5495C172.681 35.1451 172.161 34.5777 171.793 33.8473C171.43 33.1128 171.249 32.2525 171.249 31.2663C171.249 30.2924 171.43 29.4341 171.793 28.6914C172.161 27.9486 172.672 27.3688 173.328 26.9521C173.989 26.5353 174.76 26.3269 175.643 26.3269C176.18 26.3269 176.7 26.4156 177.203 26.5931C177.707 26.7705 178.158 27.049 178.559 27.4287C178.959 27.8083 179.275 28.3014 179.506 28.908C179.737 29.5105 179.852 30.2429 179.852 31.1053V31.7614H172.295V30.3749H178.039C178.039 29.888 177.94 29.4568 177.742 29.0813C177.544 28.7017 177.265 28.4025 176.906 28.1838C176.551 27.9651 176.134 27.8558 175.656 27.8558C175.136 27.8558 174.682 27.9837 174.294 28.2395C173.91 28.4912 173.613 28.8213 173.403 29.2299C173.196 29.6342 173.093 30.0737 173.093 30.5483V31.6314C173.093 32.2669 173.205 32.8075 173.427 33.2531C173.654 33.6988 173.97 34.0392 174.375 34.2744C174.779 34.5055 175.251 34.621 175.792 34.621C176.143 34.621 176.462 34.5715 176.751 34.4725C177.04 34.3693 177.29 34.2167 177.5 34.0145C177.711 33.8123 177.872 33.5626 177.983 33.2655L179.735 33.5812C179.594 34.097 179.343 34.5488 178.98 34.9367C178.621 35.3205 178.169 35.6196 177.624 35.8342C177.084 36.0447 176.467 36.1499 175.773 36.1499ZM183.95 35.958L181.152 26.4507H183.065L184.928 33.4326H185.021L186.89 26.4507H188.803L190.659 33.4017H190.752L192.603 26.4507H194.516L191.724 35.958H189.836L187.905 29.0937H187.763L185.832 35.958H183.95ZM200.08 36.1499C199.143 36.1499 198.337 35.9498 197.66 35.5495C196.987 35.1451 196.467 34.5777 196.1 33.8473C195.737 33.1128 195.555 32.2525 195.555 31.2663C195.555 30.2924 195.737 29.4341 196.1 28.6914C196.467 27.9486 196.979 27.3688 197.635 26.9521C198.295 26.5353 199.067 26.3269 199.95 26.3269C200.487 26.3269 201.007 26.4156 201.51 26.5931C202.013 26.7705 202.465 27.049 202.865 27.4287C203.266 27.8083 203.581 28.3014 203.812 28.908C204.044 29.5105 204.159 30.2429 204.159 31.1053V31.7614H196.602V30.3749H202.346C202.346 29.888 202.247 29.4568 202.048 29.0813C201.85 28.7017 201.572 28.4025 201.213 28.1838C200.858 27.9651 200.441 27.8558 199.963 27.8558C199.443 27.8558 198.989 27.9837 198.601 28.2395C198.217 28.4912 197.92 28.8213 197.709 29.2299C197.503 29.6342 197.4 30.0737 197.4 30.5483V31.6314C197.4 32.2669 197.511 32.8075 197.734 33.2531C197.961 33.6988 198.277 34.0392 198.681 34.2744C199.086 34.5055 199.558 34.621 200.099 34.621C200.449 34.621 200.769 34.5715 201.058 34.4725C201.347 34.3693 201.597 34.2167 201.807 34.0145C202.017 33.8123 202.178 33.5626 202.29 33.2655L204.042 33.5812C203.901 34.097 203.649 34.5488 203.286 34.9367C202.927 35.3205 202.476 35.6196 201.931 35.8342C201.39 36.0447 200.773 36.1499 200.08 36.1499ZM206.213 35.958V26.4507H208.001V27.961H208.1C208.274 27.4493 208.579 27.047 209.016 26.754C209.458 26.4569 209.957 26.3083 210.514 26.3083C210.63 26.3083 210.766 26.3125 210.923 26.3207C211.084 26.329 211.21 26.3393 211.3 26.3517V28.1219C211.226 28.1013 211.094 28.0786 210.904 28.0538C210.714 28.0249 210.525 28.0105 210.335 28.0105C209.897 28.0105 209.507 28.1033 209.165 28.289C208.827 28.4706 208.558 28.7244 208.36 29.0504C208.162 29.3722 208.063 29.7395 208.063 30.1521V35.958H206.213Z" fill="#1D3157"/>
<rect x="381.827" y="19.6089" width="20.6982" height="20.6982" rx="10.3491" fill="white"/>
<rect x="381.827" y="19.6089" width="20.6982" height="20.6982" rx="10.3491" stroke="#D0D5DD" stroke-width="1.08938"/>
<rect x="0.406342" y="69.037" width="419.687" height="59.9838" rx="15.0249" fill="white"/>
<rect x="0.406342" y="69.037" width="419.687" height="59.9838" rx="15.0249" stroke="#32CB84" stroke-width="0.812685"/>
<circle cx="36.9345" cy="99.0288" r="17.0664" fill="url(#paint0_linear_130_954)"/>
<path d="M43.2899 104.248L44.048 99.4312H39.3056V96.3067C39.3056 94.9886 39.9668 93.703 42.091 93.703H44.2484V89.6021C44.2484 89.6021 42.2913 89.2766 40.421 89.2766C36.5135 89.2766 33.9619 91.5842 33.9619 95.7599V99.4312H29.6201V104.248H33.9619V115.893C34.8335 116.027 35.7253 116.095 36.6337 116.095C37.5421 116.095 38.4339 116.027 39.3056 115.893V104.248H43.2899Z" fill="white"/>
<path d="M67.5831 92.3524H69.9042L73.9399 102.206H74.0884L78.1241 92.3524H80.4452V105.029H78.6254V95.8557H78.5078L74.7693 105.01H73.259L69.5205 95.8496H69.4029V105.029H67.5831V92.3524ZM87.1749 105.221C86.2382 105.221 85.4315 105.021 84.7547 104.62C84.0821 104.216 83.5622 103.649 83.1949 102.918C82.8318 102.184 82.6503 101.323 82.6503 100.337C82.6503 99.3632 82.8318 98.5049 83.1949 97.7622C83.5622 97.0194 84.0739 96.4396 84.73 96.0229C85.3902 95.6061 86.1619 95.3977 87.0449 95.3977C87.5813 95.3977 88.1013 95.4864 88.6047 95.6639C89.1081 95.8413 89.56 96.1198 89.9602 96.4995C90.3605 96.8791 90.6762 97.3722 90.9072 97.9788C91.1383 98.5813 91.2539 99.3137 91.2539 100.176V100.832H83.6963V99.4457H89.4403C89.4403 98.9588 89.3413 98.5276 89.1432 98.1521C88.9451 97.7725 88.6666 97.4733 88.3076 97.2546C87.9527 97.0359 87.536 96.9266 87.0573 96.9266C86.5374 96.9266 86.0834 97.0545 85.6956 97.3103C85.3118 97.562 85.0147 97.8921 84.8043 98.3007C84.5979 98.705 84.4948 99.1445 84.4948 99.6191V100.702C84.4948 101.338 84.6062 101.878 84.829 102.324C85.056 102.77 85.3716 103.11 85.776 103.345C86.1804 103.576 86.6529 103.692 87.1935 103.692C87.5442 103.692 87.864 103.642 88.1529 103.543C88.4417 103.44 88.6914 103.287 88.9018 103.085C89.1123 102.883 89.2732 102.633 89.3846 102.336L91.1363 102.652C90.996 103.168 90.7443 103.62 90.3811 104.008C90.0221 104.391 89.5703 104.69 89.0256 104.905C88.485 105.115 87.8681 105.221 87.1749 105.221ZM97.7453 95.5215V97.007H92.5521V95.5215H97.7453ZM93.9448 93.2437H95.7955V102.237C95.7955 102.596 95.8492 102.867 95.9565 103.048C96.0637 103.226 96.202 103.347 96.3712 103.413C96.5445 103.475 96.7322 103.506 96.9344 103.506C97.083 103.506 97.213 103.496 97.3244 103.475C97.4358 103.455 97.5224 103.438 97.5843 103.426L97.9186 104.955C97.8113 104.996 97.6586 105.037 97.4605 105.078C97.2625 105.124 97.0149 105.148 96.7178 105.153C96.2309 105.161 95.777 105.074 95.3561 104.893C94.9352 104.711 94.5947 104.43 94.3348 104.051C94.0748 103.671 93.9448 103.195 93.9448 102.621V93.2437ZM102.559 105.239C101.957 105.239 101.412 105.128 100.925 104.905C100.438 104.678 100.052 104.35 99.7677 103.921C99.4871 103.492 99.3468 102.966 99.3468 102.343C99.3468 101.806 99.45 101.365 99.6563 101.018C99.8626 100.671 100.141 100.397 100.492 100.195C100.843 99.9925 101.235 99.8398 101.668 99.7367C102.101 99.6335 102.543 99.5551 102.993 99.5015C103.562 99.4354 104.024 99.3818 104.379 99.3405C104.734 99.2951 104.992 99.2229 105.153 99.1239C105.314 99.0248 105.394 98.8639 105.394 98.6411V98.5978C105.394 98.0572 105.241 97.6384 104.936 97.3413C104.635 97.0442 104.185 96.8956 103.587 96.8956C102.964 96.8956 102.473 97.0338 102.114 97.3103C101.759 97.5827 101.513 97.886 101.377 98.2202L99.6377 97.8241C99.8441 97.2464 100.145 96.7801 100.541 96.4252C100.942 96.0662 101.402 95.8062 101.922 95.6453C102.442 95.4802 102.988 95.3977 103.562 95.3977C103.942 95.3977 104.344 95.4431 104.769 95.5339C105.198 95.6205 105.598 95.7815 105.97 96.0167C106.345 96.2519 106.653 96.5882 106.892 97.0256C107.131 97.4589 107.251 98.0221 107.251 98.7154V105.029H105.444V103.729H105.369C105.25 103.968 105.07 104.204 104.831 104.435C104.592 104.666 104.284 104.858 103.909 105.01C103.533 105.163 103.083 105.239 102.559 105.239ZM102.962 103.754C103.473 103.754 103.911 103.653 104.274 103.45C104.641 103.248 104.92 102.984 105.109 102.658C105.303 102.328 105.4 101.975 105.4 101.6V100.374C105.334 100.44 105.206 100.502 105.017 100.56C104.831 100.614 104.618 100.661 104.379 100.702C104.14 100.739 103.907 100.774 103.68 100.807C103.453 100.836 103.263 100.861 103.11 100.882C102.751 100.927 102.423 101.003 102.126 101.111C101.833 101.218 101.598 101.373 101.42 101.575C101.247 101.773 101.16 102.037 101.16 102.367C101.16 102.825 101.33 103.172 101.668 103.407C102.006 103.638 102.438 103.754 102.962 103.754ZM114.867 98.6906C114.867 97.1391 115.072 95.7113 115.48 94.4074C115.889 93.1034 116.485 91.9006 117.269 90.7988H118.965C118.66 91.2073 118.375 91.7087 118.111 92.3029C117.847 92.8971 117.616 93.5491 117.418 94.2588C117.219 94.9644 117.065 95.6969 116.953 96.4561C116.842 97.2113 116.786 97.9561 116.786 98.6906C116.786 99.6727 116.883 100.667 117.077 101.674C117.271 102.681 117.533 103.616 117.863 104.478C118.193 105.34 118.561 106.044 118.965 106.589H117.269C116.485 105.487 115.889 104.284 115.48 102.98C115.072 101.676 114.867 100.246 114.867 98.6906ZM121.065 105.029V92.3524H128.926V93.9989H122.977V97.8612H128.362V99.5015H122.977V105.029H121.065ZM133.862 105.239C133.259 105.239 132.715 105.128 132.228 104.905C131.741 104.678 131.355 104.35 131.07 103.921C130.79 103.492 130.649 102.966 130.649 102.343C130.649 101.806 130.753 101.365 130.959 101.018C131.165 100.671 131.444 100.397 131.795 100.195C132.145 99.9925 132.537 99.8398 132.971 99.7367C133.404 99.6335 133.845 99.5551 134.295 99.5015C134.865 99.4354 135.327 99.3818 135.682 99.3405C136.037 99.2951 136.294 99.2229 136.455 99.1239C136.616 99.0248 136.697 98.8639 136.697 98.6411V98.5978C136.697 98.0572 136.544 97.6384 136.239 97.3413C135.937 97.0442 135.488 96.8956 134.889 96.8956C134.266 96.8956 133.775 97.0338 133.416 97.3103C133.061 97.5827 132.816 97.886 132.68 98.2202L130.94 97.8241C131.147 97.2464 131.448 96.7801 131.844 96.4252C132.244 96.0662 132.704 95.8062 133.224 95.6453C133.744 95.4802 134.291 95.3977 134.865 95.3977C135.244 95.3977 135.647 95.4431 136.072 95.5339C136.501 95.6205 136.901 95.7815 137.272 96.0167C137.648 96.2519 137.955 96.5882 138.195 97.0256C138.434 97.4589 138.554 98.0221 138.554 98.7154V105.029H136.746V103.729H136.672C136.552 103.968 136.373 104.204 136.133 104.435C135.894 104.666 135.587 104.858 135.211 105.01C134.836 105.163 134.386 105.239 133.862 105.239ZM134.264 103.754C134.776 103.754 135.213 103.653 135.576 103.45C135.944 103.248 136.222 102.984 136.412 102.658C136.606 102.328 136.703 101.975 136.703 101.6V100.374C136.637 100.44 136.509 100.502 136.319 100.56C136.133 100.614 135.921 100.661 135.682 100.702C135.442 100.739 135.209 100.774 134.982 100.807C134.755 100.836 134.565 100.861 134.413 100.882C134.054 100.927 133.726 101.003 133.429 101.111C133.136 101.218 132.9 101.373 132.723 101.575C132.55 101.773 132.463 102.037 132.463 102.367C132.463 102.825 132.632 103.172 132.971 103.407C133.309 103.638 133.74 103.754 134.264 103.754ZM145.023 105.221C144.103 105.221 143.311 105.012 142.647 104.596C141.986 104.175 141.479 103.595 141.124 102.856C140.769 102.118 140.592 101.272 140.592 100.318C140.592 99.3529 140.773 98.5008 141.136 97.7622C141.499 97.0194 142.011 96.4396 142.671 96.0229C143.332 95.6061 144.109 95.3977 145.005 95.3977C145.727 95.3977 146.371 95.5318 146.936 95.8C147.501 96.0641 147.957 96.4355 148.304 96.9142C148.655 97.3928 148.863 97.952 148.929 98.5916H147.128C147.029 98.1459 146.802 97.7622 146.447 97.4403C146.096 97.1184 145.626 96.9575 145.036 96.9575C144.52 96.9575 144.068 97.0937 143.68 97.366C143.296 97.6342 142.997 98.018 142.783 98.5173C142.568 99.0125 142.461 99.5984 142.461 100.275C142.461 100.968 142.566 101.567 142.777 102.07C142.987 102.574 143.284 102.964 143.668 103.24C144.056 103.516 144.512 103.655 145.036 103.655C145.386 103.655 145.704 103.591 145.989 103.463C146.278 103.331 146.519 103.143 146.713 102.9C146.911 102.656 147.049 102.363 147.128 102.021H148.929C148.863 102.635 148.663 103.184 148.329 103.667C147.994 104.15 147.547 104.53 146.985 104.806C146.428 105.082 145.774 105.221 145.023 105.221ZM155.006 105.221C154.069 105.221 153.262 105.021 152.586 104.62C151.913 104.216 151.393 103.649 151.026 102.918C150.663 102.184 150.481 101.323 150.481 100.337C150.481 99.3632 150.663 98.5049 151.026 97.7622C151.393 97.0194 151.905 96.4396 152.561 96.0229C153.221 95.6061 153.993 95.3977 154.876 95.3977C155.412 95.3977 155.932 95.4864 156.436 95.6639C156.939 95.8413 157.391 96.1198 157.791 96.4995C158.191 96.8791 158.507 97.3722 158.738 97.9788C158.969 98.5813 159.085 99.3137 159.085 100.176V100.832H151.527V99.4457H157.271C157.271 98.9588 157.172 98.5276 156.974 98.1521C156.776 97.7725 156.497 97.4733 156.138 97.2546C155.784 97.0359 155.367 96.9266 154.888 96.9266C154.368 96.9266 153.914 97.0545 153.526 97.3103C153.143 97.562 152.846 97.8921 152.635 98.3007C152.429 98.705 152.326 99.1445 152.326 99.6191V100.702C152.326 101.338 152.437 101.878 152.66 102.324C152.887 102.77 153.202 103.11 153.607 103.345C154.011 103.576 154.484 103.692 155.024 103.692C155.375 103.692 155.695 103.642 155.984 103.543C156.273 103.44 156.522 103.287 156.733 103.085C156.943 102.883 157.104 102.633 157.215 102.336L158.967 102.652C158.827 103.168 158.575 103.62 158.212 104.008C157.853 104.391 157.401 104.69 156.856 104.905C156.316 105.115 155.699 105.221 155.006 105.221ZM161.287 105.029V92.3524H163.137V97.0627H163.249C163.356 96.8647 163.511 96.6356 163.713 96.3757C163.915 96.1157 164.196 95.8888 164.555 95.6948C164.914 95.4967 165.388 95.3977 165.978 95.3977C166.746 95.3977 167.431 95.5917 168.033 95.9795C168.636 96.3674 169.108 96.9266 169.451 97.6569C169.797 98.3873 169.971 99.2662 169.971 100.294C169.971 101.321 169.799 102.202 169.457 102.937C169.115 103.667 168.644 104.23 168.046 104.626C167.447 105.018 166.765 105.214 165.997 105.214C165.419 105.214 164.947 105.118 164.58 104.924C164.216 104.73 163.932 104.503 163.725 104.243C163.519 103.983 163.36 103.752 163.249 103.549H163.094V105.029H161.287ZM163.1 100.275C163.1 100.944 163.197 101.53 163.391 102.033C163.585 102.536 163.866 102.931 164.233 103.215C164.6 103.496 165.05 103.636 165.582 103.636C166.135 103.636 166.597 103.49 166.969 103.197C167.34 102.9 167.621 102.497 167.811 101.99C168.004 101.482 168.101 100.911 168.101 100.275C168.101 99.6479 168.007 99.0847 167.817 98.5854C167.631 98.0861 167.35 97.692 166.975 97.4032C166.604 97.1143 166.139 96.9699 165.582 96.9699C165.046 96.9699 164.592 97.1081 164.221 97.3846C163.853 97.6611 163.575 98.0469 163.385 98.5421C163.195 99.0372 163.1 99.6149 163.1 100.275ZM176.054 105.221C175.162 105.221 174.384 105.016 173.72 104.608C173.056 104.199 172.54 103.628 172.173 102.893C171.805 102.159 171.622 101.301 171.622 100.318C171.622 99.3323 171.805 98.4698 172.173 97.7312C172.54 96.9926 173.056 96.419 173.72 96.0105C174.384 95.602 175.162 95.3977 176.054 95.3977C176.945 95.3977 177.723 95.602 178.387 96.0105C179.051 96.419 179.567 96.9926 179.935 97.7312C180.302 98.4698 180.485 99.3323 180.485 100.318C180.485 101.301 180.302 102.159 179.935 102.893C179.567 103.628 179.051 104.199 178.387 104.608C177.723 105.016 176.945 105.221 176.054 105.221ZM176.06 103.667C176.638 103.667 177.116 103.514 177.496 103.209C177.875 102.904 178.156 102.497 178.338 101.99C178.523 101.482 178.616 100.923 178.616 100.312C178.616 99.7057 178.523 99.1486 178.338 98.6411C178.156 98.1294 177.875 97.7188 177.496 97.4093C177.116 97.0999 176.638 96.9451 176.06 96.9451C175.478 96.9451 174.995 97.0999 174.611 97.4093C174.232 97.7188 173.949 98.1294 173.763 98.6411C173.582 99.1486 173.491 99.7057 173.491 100.312C173.491 100.923 173.582 101.482 173.763 101.99C173.949 102.497 174.232 102.904 174.611 103.209C174.995 103.514 175.478 103.667 176.06 103.667ZM186.556 105.221C185.665 105.221 184.887 105.016 184.222 104.608C183.558 104.199 183.042 103.628 182.675 102.893C182.308 102.159 182.124 101.301 182.124 100.318C182.124 99.3323 182.308 98.4698 182.675 97.7312C183.042 96.9926 183.558 96.419 184.222 96.0105C184.887 95.602 185.665 95.3977 186.556 95.3977C187.447 95.3977 188.225 95.602 188.889 96.0105C189.554 96.419 190.07 96.9926 190.437 97.7312C190.804 98.4698 190.988 99.3323 190.988 100.318C190.988 101.301 190.804 102.159 190.437 102.893C190.07 103.628 189.554 104.199 188.889 104.608C188.225 105.016 187.447 105.221 186.556 105.221ZM186.562 103.667C187.14 103.667 187.618 103.514 187.998 103.209C188.378 102.904 188.658 102.497 188.84 101.99C189.026 101.482 189.118 100.923 189.118 100.312C189.118 99.7057 189.026 99.1486 188.84 98.6411C188.658 98.1294 188.378 97.7188 187.998 97.4093C187.618 97.0999 187.14 96.9451 186.562 96.9451C185.98 96.9451 185.497 97.0999 185.114 97.4093C184.734 97.7188 184.451 98.1294 184.266 98.6411C184.084 99.1486 183.993 99.7057 183.993 100.312C183.993 100.923 184.084 101.482 184.266 101.99C184.451 102.497 184.734 102.904 185.114 103.209C185.497 103.514 185.98 103.667 186.562 103.667ZM194.756 101.804L194.743 99.5448H195.065L198.853 95.5215H201.069L196.749 100.102H196.458L194.756 101.804ZM193.053 105.029V92.3524H194.904V105.029H193.053ZM199.057 105.029L195.653 100.51L196.928 99.2167L201.329 105.029H199.057ZM206.315 99.7676C206.315 101.323 206.111 102.753 205.702 104.057C205.294 105.361 204.697 106.564 203.913 107.666H202.217C202.523 107.257 202.807 106.756 203.071 106.162C203.336 105.567 203.567 104.917 203.765 104.212C203.963 103.502 204.117 102.768 204.229 102.008C204.34 101.249 204.396 100.502 204.396 99.7676C204.396 98.7896 204.299 97.7972 204.105 96.7904C203.911 95.7835 203.649 94.8489 203.319 93.9865C202.989 93.124 202.622 92.4205 202.217 91.8758H203.913C204.697 92.9776 205.294 94.1804 205.702 95.4844C206.111 96.7883 206.315 98.2161 206.315 99.7676ZM216.017 92.3524V105.029H214.104V92.3524H216.017ZM220.505 99.3838V105.029H218.654V95.5215H220.43V97.0689H220.548C220.767 96.5655 221.109 96.1611 221.575 95.8557C222.046 95.5504 222.638 95.3977 223.352 95.3977C224 95.3977 224.567 95.5339 225.054 95.8062C225.541 96.0744 225.918 96.4747 226.187 97.007C226.455 97.5393 226.589 98.1975 226.589 98.9815V105.029H224.738V99.2043C224.738 98.5152 224.559 97.9767 224.2 97.5888C223.841 97.1968 223.348 97.0008 222.72 97.0008C222.291 97.0008 221.91 97.0937 221.575 97.2794C221.245 97.4651 220.983 97.7374 220.789 98.0964C220.599 98.4513 220.505 98.8804 220.505 99.3838ZM233.509 95.5215V97.007H228.316V95.5215H233.509ZM229.709 93.2437H231.559V102.237C231.559 102.596 231.613 102.867 231.72 103.048C231.828 103.226 231.966 103.347 232.135 103.413C232.308 103.475 232.496 103.506 232.698 103.506C232.847 103.506 232.977 103.496 233.088 103.475C233.2 103.455 233.286 103.438 233.348 103.426L233.682 104.955C233.575 104.996 233.422 105.037 233.224 105.078C233.026 105.124 232.779 105.148 232.482 105.153C231.995 105.161 231.541 105.074 231.12 104.893C230.699 104.711 230.359 104.43 230.099 104.051C229.839 103.671 229.709 103.195 229.709 102.621V93.2437ZM239.552 105.221C238.615 105.221 237.808 105.021 237.132 104.62C236.459 104.216 235.939 103.649 235.572 102.918C235.209 102.184 235.027 101.323 235.027 100.337C235.027 99.3632 235.209 98.5049 235.572 97.7622C235.939 97.0194 236.451 96.4396 237.107 96.0229C237.767 95.6061 238.539 95.3977 239.422 95.3977C239.958 95.3977 240.478 95.4864 240.981 95.6639C241.485 95.8413 241.937 96.1198 242.337 96.4995C242.737 96.8791 243.053 97.3722 243.284 97.9788C243.515 98.5813 243.631 99.3137 243.631 100.176V100.832H236.073V99.4457H241.817C241.817 98.9588 241.718 98.5276 241.52 98.1521C241.322 97.7725 241.043 97.4733 240.684 97.2546C240.33 97.0359 239.913 96.9266 239.434 96.9266C238.914 96.9266 238.46 97.0545 238.072 97.3103C237.689 97.562 237.392 97.8921 237.181 98.3007C236.975 98.705 236.872 99.1445 236.872 99.6191V100.702C236.872 101.338 236.983 101.878 237.206 102.324C237.433 102.77 237.748 103.11 238.153 103.345C238.557 103.576 239.03 103.692 239.57 103.692C239.921 103.692 240.241 103.642 240.53 103.543C240.819 103.44 241.068 103.287 241.279 103.085C241.489 102.883 241.65 102.633 241.761 102.336L243.513 102.652C243.373 103.168 243.121 103.62 242.758 104.008C242.399 104.391 241.947 104.69 241.402 104.905C240.862 105.115 240.245 105.221 239.552 105.221ZM245.684 105.029V95.5215H247.473V97.0318H247.572C247.745 96.5201 248.051 96.1178 248.488 95.8248C248.93 95.5277 249.429 95.3791 249.986 95.3791C250.101 95.3791 250.238 95.3833 250.394 95.3915C250.555 95.3998 250.681 95.4101 250.772 95.4225V97.1927C250.698 97.1721 250.566 97.1494 250.376 97.1246C250.186 97.0957 249.996 97.0813 249.806 97.0813C249.369 97.0813 248.979 97.1741 248.637 97.3598C248.298 97.5414 248.03 97.7952 247.832 98.1212C247.634 98.443 247.535 98.8103 247.535 99.2229V105.029H245.684ZM260.796 95.5215L257.348 105.029H255.368L251.914 95.5215H253.901L256.309 102.838H256.408L258.809 95.5215H260.796ZM262.535 105.029V95.5215H264.386V105.029H262.535ZM263.47 94.0546C263.148 94.0546 262.872 93.9473 262.641 93.7327C262.414 93.514 262.3 93.254 262.3 92.9528C262.3 92.6474 262.414 92.3875 262.641 92.1729C262.872 91.9542 263.148 91.8449 263.47 91.8449C263.792 91.8449 264.066 91.9542 264.293 92.1729C264.524 92.3875 264.64 92.6474 264.64 92.9528C264.64 93.254 264.524 93.514 264.293 93.7327C264.066 93.9473 263.792 94.0546 263.47 94.0546ZM270.973 105.221C270.037 105.221 269.23 105.021 268.553 104.62C267.881 104.216 267.361 103.649 266.993 102.918C266.63 102.184 266.449 101.323 266.449 100.337C266.449 99.3632 266.63 98.5049 266.993 97.7622C267.361 97.0194 267.872 96.4396 268.529 96.0229C269.189 95.6061 269.96 95.3977 270.843 95.3977C271.38 95.3977 271.9 95.4864 272.403 95.6639C272.907 95.8413 273.359 96.1198 273.759 96.4995C274.159 96.8791 274.475 97.3722 274.706 97.9788C274.937 98.5813 275.052 99.3137 275.052 100.176V100.832H267.495V99.4457H273.239C273.239 98.9588 273.14 98.5276 272.942 98.1521C272.744 97.7725 272.465 97.4733 272.106 97.2546C271.751 97.0359 271.335 96.9266 270.856 96.9266C270.336 96.9266 269.882 97.0545 269.494 97.3103C269.11 97.562 268.813 97.8921 268.603 98.3007C268.396 98.705 268.293 99.1445 268.293 99.6191V100.702C268.293 101.338 268.405 101.878 268.628 102.324C268.855 102.77 269.17 103.11 269.575 103.345C269.979 103.576 270.451 103.692 270.992 103.692C271.343 103.692 271.663 103.642 271.951 103.543C272.24 103.44 272.49 103.287 272.7 103.085C272.911 102.883 273.072 102.633 273.183 102.336L274.935 102.652C274.795 103.168 274.543 103.62 274.18 104.008C273.821 104.391 273.369 104.69 272.824 104.905C272.284 105.115 271.667 105.221 270.973 105.221ZM279.15 105.029L276.352 95.5215H278.265L280.128 102.503H280.221L282.09 95.5215H284.003L285.86 102.472H285.952L287.803 95.5215H289.716L286.924 105.029H285.036L283.105 98.1645H282.963L281.032 105.029H279.15ZM295.28 105.221C294.344 105.221 293.537 105.021 292.86 104.62C292.187 104.216 291.668 103.649 291.3 102.918C290.937 102.184 290.756 101.323 290.756 100.337C290.756 99.3632 290.937 98.5049 291.3 97.7622C291.668 97.0194 292.179 96.4396 292.835 96.0229C293.496 95.6061 294.267 95.3977 295.15 95.3977C295.687 95.3977 296.207 95.4864 296.71 95.6639C297.213 95.8413 297.665 96.1198 298.066 96.4995C298.466 96.8791 298.781 97.3722 299.013 97.9788C299.244 98.5813 299.359 99.3137 299.359 100.176V100.832H291.802V99.4457H297.546C297.546 98.9588 297.447 98.5276 297.249 98.1521C297.05 97.7725 296.772 97.4733 296.413 97.2546C296.058 97.0359 295.641 96.9266 295.163 96.9266C294.643 96.9266 294.189 97.0545 293.801 97.3103C293.417 97.562 293.12 97.8921 292.91 98.3007C292.703 98.705 292.6 99.1445 292.6 99.6191V100.702C292.6 101.338 292.712 101.878 292.934 102.324C293.161 102.77 293.477 103.11 293.881 103.345C294.286 103.576 294.758 103.692 295.299 103.692C295.65 103.692 295.969 103.642 296.258 103.543C296.547 103.44 296.797 103.287 297.007 103.085C297.218 102.883 297.378 102.633 297.49 102.336L299.242 102.652C299.101 103.168 298.85 103.62 298.486 104.008C298.127 104.391 297.676 104.69 297.131 104.905C296.59 105.115 295.973 105.221 295.28 105.221ZM301.413 105.029V95.5215H303.201V97.0318H303.3C303.474 96.5201 303.779 96.1178 304.217 95.8248C304.658 95.5277 305.157 95.3791 305.714 95.3791C305.83 95.3791 305.966 95.3833 306.123 95.3915C306.284 95.3998 306.41 95.4101 306.5 95.4225V97.1927C306.426 97.1721 306.294 97.1494 306.104 97.1246C305.915 97.0957 305.725 97.0813 305.535 97.0813C305.097 97.0813 304.708 97.1741 304.365 97.3598C304.027 97.5414 303.758 97.7952 303.56 98.1212C303.362 98.443 303.263 98.8103 303.263 99.2229V105.029H301.413Z" fill="#1D3157"/>
<rect x="381.827" y="88.6797" width="20.6982" height="20.6982" rx="10.3491" fill="#F5FFF7"/>
<rect x="381.827" y="88.6797" width="20.6982" height="20.6982" rx="10.3491" stroke="#32CB84" stroke-width="1.08938"/>
<circle cx="392.176" cy="99.0289" r="4.35751" fill="#32CB84"/>
<rect x="0.406342" y="138.549" width="419.687" height="59.9838" rx="15.0249" fill="white"/>
<rect x="0.406342" y="138.549" width="419.687" height="59.9838" rx="15.0249" stroke="#D0D5DD" stroke-width="0.812685"/>
<path d="M54.0023 168.92C54.0023 167.516 53.8861 166.492 53.6346 165.43H37.2842V171.764H46.8815C46.6881 173.338 45.6432 175.708 43.3212 177.301L43.2887 177.513L48.4584 181.438L48.8165 181.473C52.1059 178.496 54.0023 174.115 54.0023 168.92Z" fill="#4285F4"/>
<path d="M37.2827 185.607C41.9846 185.607 45.9318 184.09 48.815 181.473L43.3197 177.301C41.8492 178.306 39.8755 179.008 37.2827 179.008C32.6775 179.008 28.7689 176.031 27.3756 171.916L27.1714 171.933L21.7959 176.01L21.7256 176.201C24.5893 181.776 30.4716 185.607 37.2827 185.607Z" fill="#34A853"/>
<path d="M27.3767 171.916C27.0091 170.854 26.7963 169.716 26.7963 168.541C26.7963 167.365 27.0091 166.227 27.3574 165.165L27.3476 164.939L21.9047 160.797L21.7267 160.88C20.5464 163.193 19.8691 165.791 19.8691 168.541C19.8691 171.29 20.5464 173.888 21.7267 176.201L27.3767 171.916Z" fill="#FBBC05"/>
<path d="M37.2828 158.073C40.5528 158.073 42.7586 159.457 44.0164 160.614L48.9312 155.911C45.9128 153.162 41.9847 151.474 37.2828 151.474C30.4716 151.474 24.5893 155.305 21.7256 160.88L27.3563 165.165C28.769 161.05 32.6776 158.073 37.2828 158.073Z" fill="#EB4335"/>
<path d="M76.162 165.869C76.0423 165.493 75.8814 165.157 75.6792 164.86C75.4811 164.559 75.2438 164.303 74.9674 164.092C74.6909 163.878 74.3752 163.715 74.0203 163.603C73.6696 163.492 73.2838 163.436 72.8629 163.436C72.149 163.436 71.5053 163.62 70.9317 163.987C70.3581 164.354 69.9042 164.893 69.57 165.603C69.2399 166.308 69.0748 167.173 69.0748 168.196C69.0748 169.224 69.2419 170.092 69.5762 170.802C69.9104 171.512 70.3684 172.05 70.9503 172.417C71.5321 172.785 72.1944 172.968 72.9371 172.968C73.6263 172.968 74.2267 172.828 74.7383 172.547C75.2541 172.267 75.6523 171.871 75.9329 171.359C76.2177 170.843 76.36 170.237 76.36 169.539L76.8552 169.632H73.2281V168.054H78.2107V169.496C78.2107 170.561 77.9838 171.485 77.5299 172.269C77.0801 173.049 76.457 173.651 75.6606 174.076C74.8683 174.501 73.9605 174.714 72.9371 174.714C71.79 174.714 70.7831 174.45 69.9166 173.922C69.0542 173.393 68.3816 172.644 67.8988 171.675C67.416 170.701 67.1746 169.545 67.1746 168.209C67.1746 167.198 67.3149 166.29 67.5955 165.485C67.8761 164.68 68.2702 163.997 68.7777 163.436C69.2894 162.871 69.8898 162.44 70.5789 162.143C71.2721 161.841 72.0293 161.691 72.8505 161.691C73.5355 161.691 74.173 161.792 74.7631 161.994C75.3573 162.196 75.8855 162.483 76.3476 162.854C76.8139 163.226 77.1998 163.667 77.5051 164.179C77.8105 164.687 78.0168 165.25 78.1241 165.869H76.162ZM84.4948 174.732C83.6035 174.732 82.8256 174.528 82.1613 174.12C81.4969 173.711 80.9811 173.14 80.6139 172.405C80.2466 171.671 80.063 170.812 80.063 169.83C80.063 168.844 80.2466 167.982 80.6139 167.243C80.9811 166.504 81.4969 165.931 82.1613 165.522C82.8256 165.114 83.6035 164.909 84.4948 164.909C85.3861 164.909 86.1639 165.114 86.8283 165.522C87.4926 165.931 88.0084 166.504 88.3757 167.243C88.7429 167.982 88.9266 168.844 88.9266 169.83C88.9266 170.812 88.7429 171.671 88.3757 172.405C88.0084 173.14 87.4926 173.711 86.8283 174.12C86.1639 174.528 85.3861 174.732 84.4948 174.732ZM84.501 173.179C85.0787 173.179 85.5573 173.026 85.937 172.721C86.3166 172.415 86.5972 172.009 86.7788 171.501C86.9644 170.994 87.0573 170.435 87.0573 169.824C87.0573 169.217 86.9644 168.66 86.7788 168.153C86.5972 167.641 86.3166 167.231 85.937 166.921C85.5573 166.612 85.0787 166.457 84.501 166.457C83.9191 166.457 83.4363 166.612 83.0526 166.921C82.673 167.231 82.3903 167.641 82.2046 168.153C82.023 168.66 81.9323 169.217 81.9323 169.824C81.9323 170.435 82.023 170.994 82.2046 171.501C82.3903 172.009 82.673 172.415 83.0526 172.721C83.4363 173.026 83.9191 173.179 84.501 173.179ZM94.9971 174.732C94.1058 174.732 93.3279 174.528 92.6636 174.12C91.9992 173.711 91.4834 173.14 91.1162 172.405C90.7489 171.671 90.5653 170.812 90.5653 169.83C90.5653 168.844 90.7489 167.982 91.1162 167.243C91.4834 166.504 91.9992 165.931 92.6636 165.522C93.3279 165.114 94.1058 164.909 94.9971 164.909C95.8884 164.909 96.6662 165.114 97.3306 165.522C97.9949 165.931 98.5107 166.504 98.878 167.243C99.2452 167.982 99.4289 168.844 99.4289 169.83C99.4289 170.812 99.2452 171.671 98.878 172.405C98.5107 173.14 97.9949 173.711 97.3306 174.12C96.6662 174.528 95.8884 174.732 94.9971 174.732ZM95.0033 173.179C95.581 173.179 96.0596 173.026 96.4392 172.721C96.8189 172.415 97.0995 172.009 97.281 171.501C97.4667 170.994 97.5596 170.435 97.5596 169.824C97.5596 169.217 97.4667 168.66 97.281 168.153C97.0995 167.641 96.8189 167.231 96.4392 166.921C96.0596 166.612 95.581 166.457 95.0033 166.457C94.4214 166.457 93.9386 166.612 93.5549 166.921C93.1752 167.231 92.8926 167.641 92.7069 168.153C92.5253 168.66 92.4345 169.217 92.4345 169.824C92.4345 170.435 92.5253 170.994 92.7069 171.501C92.8926 172.009 93.1752 172.415 93.5549 172.721C93.9386 173.026 94.4214 173.179 95.0033 173.179ZM105.481 178.304C104.726 178.304 104.076 178.205 103.531 178.007C102.99 177.809 102.549 177.547 102.206 177.221C101.864 176.895 101.608 176.538 101.439 176.15L103.03 175.494C103.141 175.675 103.29 175.867 103.475 176.069C103.665 176.276 103.921 176.451 104.243 176.595C104.569 176.74 104.988 176.812 105.499 176.812C106.201 176.812 106.781 176.641 107.239 176.298C107.697 175.96 107.926 175.419 107.926 174.677V172.807H107.808C107.697 173.01 107.536 173.235 107.325 173.482C107.119 173.73 106.834 173.944 106.471 174.126C106.108 174.307 105.636 174.398 105.054 174.398C104.303 174.398 103.626 174.223 103.023 173.872C102.425 173.517 101.951 172.995 101.6 172.306C101.253 171.613 101.08 170.761 101.08 169.75C101.08 168.739 101.251 167.872 101.594 167.15C101.94 166.428 102.415 165.875 103.017 165.491C103.62 165.103 104.303 164.909 105.066 164.909C105.656 164.909 106.133 165.008 106.496 165.207C106.859 165.4 107.142 165.627 107.344 165.887C107.55 166.147 107.709 166.376 107.82 166.574H107.957V165.033H109.77V174.751C109.77 175.568 109.58 176.239 109.201 176.763C108.821 177.287 108.307 177.675 107.66 177.926C107.016 178.178 106.29 178.304 105.481 178.304ZM105.462 172.863C105.995 172.863 106.444 172.739 106.812 172.492C107.183 172.24 107.464 171.881 107.653 171.415C107.847 170.944 107.944 170.381 107.944 169.725C107.944 169.085 107.849 168.522 107.66 168.035C107.47 167.548 107.191 167.169 106.824 166.896C106.457 166.62 106.003 166.482 105.462 166.482C104.905 166.482 104.441 166.626 104.07 166.915C103.698 167.2 103.418 167.587 103.228 168.079C103.042 168.57 102.949 169.118 102.949 169.725C102.949 170.348 103.044 170.895 103.234 171.365C103.424 171.836 103.704 172.203 104.076 172.467C104.451 172.731 104.913 172.863 105.462 172.863ZM114.103 161.864V174.541H112.252V161.864H114.103ZM120.69 174.732C119.754 174.732 118.947 174.532 118.27 174.132C117.598 173.728 117.078 173.16 116.71 172.43C116.347 171.695 116.166 170.835 116.166 169.849C116.166 168.875 116.347 168.017 116.71 167.274C117.078 166.531 117.589 165.951 118.245 165.535C118.906 165.118 119.677 164.909 120.56 164.909C121.097 164.909 121.617 164.998 122.12 165.176C122.624 165.353 123.075 165.632 123.476 166.011C123.876 166.391 124.192 166.884 124.423 167.491C124.654 168.093 124.769 168.825 124.769 169.688V170.344H117.212V168.957H122.956C122.956 168.471 122.857 168.039 122.659 167.664C122.461 167.284 122.182 166.985 121.823 166.766C121.468 166.548 121.051 166.438 120.573 166.438C120.053 166.438 119.599 166.566 119.211 166.822C118.827 167.074 118.53 167.404 118.32 167.812C118.113 168.217 118.01 168.656 118.01 169.131V170.214C118.01 170.849 118.122 171.39 118.344 171.836C118.571 172.281 118.887 172.622 119.291 172.857C119.696 173.088 120.168 173.204 120.709 173.204C121.06 173.204 121.379 173.154 121.668 173.055C121.957 172.952 122.207 172.799 122.417 172.597C122.628 172.395 122.789 172.145 122.9 171.848L124.652 172.164C124.511 172.68 124.26 173.131 123.897 173.519C123.538 173.903 123.086 174.202 122.541 174.417C122 174.627 121.384 174.732 120.69 174.732ZM133.497 161.864V174.541H131.584V161.864H133.497ZM137.984 168.896V174.541H136.133V165.033H137.91V166.581H138.028C138.246 166.077 138.589 165.673 139.055 165.367C139.525 165.062 140.118 164.909 140.831 164.909C141.479 164.909 142.047 165.046 142.534 165.318C143.02 165.586 143.398 165.986 143.666 166.519C143.934 167.051 144.069 167.709 144.069 168.493V174.541H142.218V168.716C142.218 168.027 142.038 167.488 141.679 167.101C141.32 166.709 140.827 166.513 140.2 166.513C139.771 166.513 139.389 166.605 139.055 166.791C138.725 166.977 138.463 167.249 138.269 167.608C138.079 167.963 137.984 168.392 137.984 168.896ZM150.989 165.033V166.519H145.796V165.033H150.989ZM147.188 162.755H149.039V171.749C149.039 172.108 149.093 172.378 149.2 172.56C149.307 172.737 149.445 172.859 149.615 172.925C149.788 172.987 149.976 173.018 150.178 173.018C150.326 173.018 150.456 173.008 150.568 172.987C150.679 172.966 150.766 172.95 150.828 172.937L151.162 174.466C151.055 174.508 150.902 174.549 150.704 174.59C150.506 174.635 150.258 174.66 149.961 174.664C149.474 174.673 149.02 174.586 148.599 174.404C148.179 174.223 147.838 173.942 147.578 173.563C147.318 173.183 147.188 172.706 147.188 172.133V162.755ZM157.031 174.732C156.095 174.732 155.288 174.532 154.611 174.132C153.939 173.728 153.419 173.16 153.051 172.43C152.688 171.695 152.507 170.835 152.507 169.849C152.507 168.875 152.688 168.017 153.051 167.274C153.419 166.531 153.93 165.951 154.586 165.535C155.247 165.118 156.018 164.909 156.901 164.909C157.438 164.909 157.958 164.998 158.461 165.176C158.965 165.353 159.416 165.632 159.817 166.011C160.217 166.391 160.533 166.884 160.764 167.491C160.995 168.093 161.11 168.825 161.11 169.688V170.344H153.553V168.957H159.297C159.297 168.471 159.198 168.039 159 167.664C158.802 167.284 158.523 166.985 158.164 166.766C157.809 166.548 157.392 166.438 156.914 166.438C156.394 166.438 155.94 166.566 155.552 166.822C155.168 167.074 154.871 167.404 154.661 167.812C154.454 168.217 154.351 168.656 154.351 169.131V170.214C154.351 170.849 154.463 171.39 154.685 171.836C154.912 172.281 155.228 172.622 155.632 172.857C156.037 173.088 156.509 173.204 157.05 173.204C157.401 173.204 157.72 173.154 158.009 173.055C158.298 172.952 158.548 172.799 158.758 172.597C158.969 172.395 159.13 172.145 159.241 171.848L160.993 172.164C160.852 172.68 160.601 173.131 160.238 173.519C159.879 173.903 159.427 174.202 158.882 174.417C158.341 174.627 157.725 174.732 157.031 174.732ZM163.164 174.541V165.033H164.952V166.543H165.052C165.225 166.032 165.53 165.629 165.968 165.337C166.409 165.039 166.908 164.891 167.465 164.891C167.581 164.891 167.717 164.895 167.874 164.903C168.035 164.911 168.161 164.922 168.252 164.934V166.704C168.177 166.684 168.045 166.661 167.855 166.636C167.666 166.607 167.476 166.593 167.286 166.593C166.849 166.593 166.459 166.686 166.116 166.872C165.778 167.053 165.51 167.307 165.311 167.633C165.113 167.955 165.014 168.322 165.014 168.735V174.541H163.164ZM178.276 165.033L174.828 174.541H172.847L169.394 165.033H171.38L173.788 172.349H173.887L176.289 165.033H178.276ZM180.015 174.541V165.033H181.866V174.541H180.015ZM180.95 163.566C180.628 163.566 180.351 163.459 180.12 163.244C179.893 163.026 179.78 162.766 179.78 162.465C179.78 162.159 179.893 161.899 180.12 161.685C180.351 161.466 180.628 161.357 180.95 161.357C181.271 161.357 181.546 161.466 181.773 161.685C182.004 161.899 182.119 162.159 182.119 162.465C182.119 162.766 182.004 163.026 181.773 163.244C181.546 163.459 181.271 163.566 180.95 163.566ZM188.453 174.732C187.516 174.732 186.71 174.532 186.033 174.132C185.36 173.728 184.84 173.16 184.473 172.43C184.11 171.695 183.928 170.835 183.928 169.849C183.928 168.875 184.11 168.017 184.473 167.274C184.84 166.531 185.352 165.951 186.008 165.535C186.668 165.118 187.44 164.909 188.323 164.909C188.859 164.909 189.379 164.998 189.883 165.176C190.386 165.353 190.838 165.632 191.238 166.011C191.639 166.391 191.954 166.884 192.185 167.491C192.416 168.093 192.532 168.825 192.532 169.688V170.344H184.974V168.957H190.718C190.718 168.471 190.619 168.039 190.421 167.664C190.223 167.284 189.945 166.985 189.586 166.766C189.231 166.548 188.814 166.438 188.335 166.438C187.816 166.438 187.362 166.566 186.974 166.822C186.59 167.074 186.293 167.404 186.082 167.812C185.876 168.217 185.773 168.656 185.773 169.131V170.214C185.773 170.849 185.884 171.39 186.107 171.836C186.334 172.281 186.65 172.622 187.054 172.857C187.459 173.088 187.931 173.204 188.472 173.204C188.822 173.204 189.142 173.154 189.431 173.055C189.72 172.952 189.969 172.799 190.18 172.597C190.39 172.395 190.551 172.145 190.663 171.848L192.414 172.164C192.274 172.68 192.022 173.131 191.659 173.519C191.3 173.903 190.848 174.202 190.304 174.417C189.763 174.627 189.146 174.732 188.453 174.732ZM196.63 174.541L193.832 165.033H195.744L197.608 172.015H197.7L199.57 165.033H201.482L203.339 171.984H203.432L205.283 165.033H207.195L204.404 174.541H202.516L200.585 167.676H200.442L198.511 174.541H196.63ZM212.76 174.732C211.823 174.732 211.016 174.532 210.34 174.132C209.667 173.728 209.147 173.16 208.78 172.43C208.417 171.695 208.235 170.835 208.235 169.849C208.235 168.875 208.417 168.017 208.78 167.274C209.147 166.531 209.659 165.951 210.315 165.535C210.975 165.118 211.747 164.909 212.63 164.909C213.166 164.909 213.686 164.998 214.19 165.176C214.693 165.353 215.145 165.632 215.545 166.011C215.945 166.391 216.261 166.884 216.492 167.491C216.723 168.093 216.839 168.825 216.839 169.688V170.344H209.281V168.957H215.025C215.025 168.471 214.926 168.039 214.728 167.664C214.53 167.284 214.251 166.985 213.892 166.766C213.538 166.548 213.121 166.438 212.642 166.438C212.122 166.438 211.668 166.566 211.28 166.822C210.897 167.074 210.6 167.404 210.389 167.812C210.183 168.217 210.08 168.656 210.08 169.131V170.214C210.08 170.849 210.191 171.39 210.414 171.836C210.641 172.281 210.957 172.622 211.361 172.857C211.765 173.088 212.238 173.204 212.778 173.204C213.129 173.204 213.449 173.154 213.738 173.055C214.027 172.952 214.276 172.799 214.487 172.597C214.697 172.395 214.858 172.145 214.969 171.848L216.721 172.164C216.581 172.68 216.329 173.131 215.966 173.519C215.607 173.903 215.155 174.202 214.61 174.417C214.07 174.627 213.453 174.732 212.76 174.732ZM218.892 174.541V165.033H220.681V166.543H220.78C220.953 166.032 221.259 165.629 221.696 165.337C222.138 165.039 222.637 164.891 223.194 164.891C223.31 164.891 223.446 164.895 223.602 164.903C223.763 164.911 223.889 164.922 223.98 164.934V166.704C223.906 166.684 223.774 166.661 223.584 166.636C223.394 166.607 223.204 166.593 223.014 166.593C222.577 166.593 222.187 166.686 221.845 166.872C221.506 167.053 221.238 167.307 221.04 167.633C220.842 167.955 220.743 168.322 220.743 168.735V174.541H218.892Z" fill="#1D3157"/>
<rect x="381.827" y="158.191" width="20.6982" height="20.6982" rx="10.3491" fill="white"/>
<rect x="381.827" y="158.191" width="20.6982" height="20.6982" rx="10.3491" stroke="#D0D5DD" stroke-width="1.08938"/>
<rect x="0.406342" y="208.06" width="419.687" height="59.9838" rx="15.0249" fill="white"/>
<rect x="0.406342" y="208.06" width="419.687" height="59.9838" rx="15.0249" stroke="#D0D5DD" stroke-width="0.812685"/>
<rect x="38.1533" y="239.271" width="12.1903" height="12.1903" fill="#FEBA08"/>
<rect x="23.5254" y="239.271" width="12.1903" height="12.1903" fill="#05A6F0"/>
<rect x="38.1533" y="224.643" width="12.1903" height="12.1903" fill="#80BC06"/>
<rect x="23.5254" y="224.643" width="12.1903" height="12.1903" fill="#F25325"/>
<path d="M67.5831 231.376H69.9042L73.9399 241.23H74.0884L78.1241 231.376H80.4452V244.052H78.6254V234.879H78.5078L74.7693 244.033H73.259L69.5205 234.873H69.4029V244.052H67.5831V231.376ZM83.0773 244.052V234.545H84.928V244.052H83.0773ZM84.012 233.078C83.6901 233.078 83.4136 232.97 83.1826 232.756C82.9556 232.537 82.8421 232.277 82.8421 231.976C82.8421 231.671 82.9556 231.411 83.1826 231.196C83.4136 230.977 83.6901 230.868 84.012 230.868C84.3338 230.868 84.6082 230.977 84.8352 231.196C85.0663 231.411 85.1818 231.671 85.1818 231.976C85.1818 232.277 85.0663 232.537 84.8352 232.756C84.6082 232.97 84.3338 233.078 84.012 233.078ZM91.4225 244.244C90.5023 244.244 89.7101 244.035 89.0457 243.619C88.3855 243.198 87.8779 242.618 87.5231 241.879C87.1682 241.141 86.9907 240.295 86.9907 239.342C86.9907 238.376 87.1723 237.524 87.5354 236.785C87.8986 236.043 88.4102 235.463 89.0705 235.046C89.7307 234.629 90.5085 234.421 91.404 234.421C92.1261 234.421 92.7698 234.555 93.3351 234.823C93.9005 235.087 94.3564 235.459 94.7031 235.937C95.0538 236.416 95.2622 236.975 95.3282 237.615H93.527C93.428 237.169 93.201 236.785 92.8462 236.463C92.4954 236.142 92.025 235.981 91.4349 235.981C90.9191 235.981 90.4673 236.117 90.0794 236.389C89.6956 236.657 89.3965 237.041 89.1819 237.54C88.9673 238.036 88.86 238.622 88.86 239.298C88.86 239.992 88.9652 240.59 89.1757 241.093C89.3861 241.597 89.6832 241.987 90.067 242.263C90.4549 242.54 90.9109 242.678 91.4349 242.678C91.7857 242.678 92.1034 242.614 92.3881 242.486C92.677 242.354 92.9184 242.166 93.1123 241.923C93.3104 241.679 93.4486 241.386 93.527 241.044H95.3282C95.2622 241.659 95.0621 242.207 94.7278 242.69C94.3936 243.173 93.9459 243.553 93.3847 243.829C92.8276 244.106 92.1735 244.244 91.4225 244.244ZM97.3073 244.052V234.545H99.0962V236.055H99.1952C99.3685 235.543 99.6739 235.141 100.111 234.848C100.553 234.551 101.052 234.402 101.609 234.402C101.725 234.402 101.861 234.406 102.018 234.415C102.179 234.423 102.304 234.433 102.395 234.446V236.216C102.321 236.195 102.189 236.173 101.999 236.148C101.809 236.119 101.619 236.104 101.43 236.104C100.992 236.104 100.602 236.197 100.26 236.383C99.9214 236.565 99.6532 236.818 99.4552 237.144C99.2571 237.466 99.1581 237.833 99.1581 238.246V244.052H97.3073ZM107.661 244.244C106.77 244.244 105.992 244.04 105.328 243.631C104.663 243.223 104.147 242.651 103.78 241.917C103.413 241.182 103.229 240.324 103.229 239.342C103.229 238.355 103.413 237.493 103.78 236.754C104.147 236.016 104.663 235.442 105.328 235.034C105.992 234.625 106.77 234.421 107.661 234.421C108.552 234.421 109.33 234.625 109.995 235.034C110.659 235.442 111.175 236.016 111.542 236.754C111.909 237.493 112.093 238.355 112.093 239.342C112.093 240.324 111.909 241.182 111.542 241.917C111.175 242.651 110.659 243.223 109.995 243.631C109.33 244.04 108.552 244.244 107.661 244.244ZM107.667 242.69C108.245 242.69 108.724 242.538 109.103 242.232C109.483 241.927 109.764 241.52 109.945 241.013C110.131 240.505 110.224 239.946 110.224 239.335C110.224 238.729 110.131 238.172 109.945 237.664C109.764 237.153 109.483 236.742 109.103 236.433C108.724 236.123 108.245 235.968 107.667 235.968C107.085 235.968 106.603 236.123 106.219 236.433C105.839 236.742 105.557 237.153 105.371 237.664C105.189 238.172 105.099 238.729 105.099 239.335C105.099 239.946 105.189 240.505 105.371 241.013C105.557 241.52 105.839 241.927 106.219 242.232C106.603 242.538 107.085 242.69 107.667 242.69ZM121.283 236.866L119.606 237.163C119.535 236.948 119.424 236.744 119.271 236.55C119.123 236.356 118.921 236.197 118.665 236.074C118.409 235.95 118.089 235.888 117.705 235.888C117.181 235.888 116.744 236.005 116.393 236.241C116.042 236.472 115.867 236.771 115.867 237.138C115.867 237.456 115.985 237.712 116.22 237.906C116.455 238.1 116.835 238.258 117.359 238.382L118.869 238.729C119.744 238.931 120.396 239.243 120.825 239.664C121.254 240.084 121.469 240.631 121.469 241.304C121.469 241.873 121.304 242.381 120.973 242.826C120.647 243.268 120.192 243.615 119.606 243.866C119.024 244.118 118.349 244.244 117.582 244.244C116.517 244.244 115.648 244.017 114.976 243.563C114.303 243.105 113.89 242.455 113.738 241.613L115.527 241.341C115.638 241.807 115.867 242.16 116.214 242.399C116.56 242.635 117.012 242.752 117.569 242.752C118.176 242.752 118.661 242.626 119.024 242.375C119.387 242.119 119.568 241.807 119.568 241.44C119.568 241.143 119.457 240.893 119.234 240.691C119.015 240.489 118.679 240.336 118.225 240.233L116.616 239.88C115.729 239.678 115.073 239.356 114.648 238.915C114.227 238.473 114.016 237.914 114.016 237.237C114.016 236.676 114.173 236.185 114.487 235.764C114.8 235.343 115.234 235.015 115.787 234.78C116.339 234.541 116.973 234.421 117.687 234.421C118.714 234.421 119.523 234.644 120.113 235.089C120.703 235.531 121.093 236.123 121.283 236.866ZM127.508 244.244C126.617 244.244 125.839 244.04 125.175 243.631C124.51 243.223 123.995 242.651 123.627 241.917C123.26 241.182 123.076 240.324 123.076 239.342C123.076 238.355 123.26 237.493 123.627 236.754C123.995 236.016 124.51 235.442 125.175 235.034C125.839 234.625 126.617 234.421 127.508 234.421C128.4 234.421 129.177 234.625 129.842 235.034C130.506 235.442 131.022 236.016 131.389 236.754C131.756 237.493 131.94 238.355 131.94 239.342C131.94 240.324 131.756 241.182 131.389 241.917C131.022 242.651 130.506 243.223 129.842 243.631C129.177 244.04 128.4 244.244 127.508 244.244ZM127.514 242.69C128.092 242.69 128.571 242.538 128.95 242.232C129.33 241.927 129.611 241.52 129.792 241.013C129.978 240.505 130.071 239.946 130.071 239.335C130.071 238.729 129.978 238.172 129.792 237.664C129.611 237.153 129.33 236.742 128.95 236.433C128.571 236.123 128.092 235.968 127.514 235.968C126.933 235.968 126.45 236.123 126.066 236.433C125.686 236.742 125.404 237.153 125.218 237.664C125.036 238.172 124.946 238.729 124.946 239.335C124.946 239.946 125.036 240.505 125.218 241.013C125.404 241.52 125.686 241.927 126.066 242.232C126.45 242.538 126.933 242.69 127.514 242.69ZM138.53 234.545V236.03H133.158V234.545H138.53ZM134.631 244.052V233.443C134.631 232.849 134.761 232.356 135.021 231.964C135.281 231.567 135.625 231.272 136.055 231.078C136.484 230.88 136.95 230.781 137.453 230.781C137.825 230.781 138.143 230.812 138.407 230.874C138.671 230.932 138.867 230.986 138.995 231.035L138.561 232.533C138.475 232.508 138.363 232.479 138.227 232.446C138.091 232.409 137.926 232.391 137.732 232.391C137.282 232.391 136.96 232.502 136.766 232.725C136.577 232.948 136.482 233.27 136.482 233.691V244.052H134.631ZM144.878 234.545V236.03H139.685V234.545H144.878ZM141.077 232.267H142.928V241.26C142.928 241.619 142.982 241.89 143.089 242.071C143.196 242.249 143.335 242.37 143.504 242.437C143.677 242.498 143.865 242.529 144.067 242.529C144.216 242.529 144.346 242.519 144.457 242.498C144.568 242.478 144.655 242.461 144.717 242.449L145.051 243.978C144.944 244.019 144.791 244.06 144.593 244.102C144.395 244.147 144.148 244.172 143.85 244.176C143.363 244.184 142.91 244.097 142.489 243.916C142.068 243.734 141.727 243.454 141.467 243.074C141.207 242.694 141.077 242.218 141.077 241.644V232.267ZM153.599 231.376V244.052H151.687V231.376H153.599ZM158.087 238.407V244.052H156.236V234.545H158.012V236.092H158.13C158.349 235.589 158.691 235.184 159.157 234.879C159.628 234.574 160.22 234.421 160.934 234.421C161.582 234.421 162.149 234.557 162.636 234.829C163.123 235.098 163.5 235.498 163.769 236.03C164.037 236.563 164.171 237.221 164.171 238.005V244.052H162.32V238.228C162.32 237.538 162.141 237 161.782 236.612C161.423 236.22 160.93 236.024 160.303 236.024C159.873 236.024 159.492 236.117 159.157 236.303C158.827 236.488 158.565 236.761 158.371 237.12C158.182 237.474 158.087 237.904 158.087 238.407ZM171.091 234.545V236.03H165.898V234.545H171.091ZM167.291 232.267H169.141V241.26C169.141 241.619 169.195 241.89 169.302 242.071C169.41 242.249 169.548 242.37 169.717 242.437C169.89 242.498 170.078 242.529 170.28 242.529C170.429 242.529 170.559 242.519 170.67 242.498C170.782 242.478 170.868 242.461 170.93 242.449L171.264 243.978C171.157 244.019 171.004 244.06 170.806 244.102C170.608 244.147 170.361 244.172 170.064 244.176C169.577 244.184 169.123 244.097 168.702 243.916C168.281 243.734 167.941 243.454 167.681 243.074C167.421 242.694 167.291 242.218 167.291 241.644V232.267ZM177.134 244.244C176.197 244.244 175.39 244.044 174.714 243.643C174.041 243.239 173.521 242.672 173.154 241.941C172.791 241.207 172.609 240.346 172.609 239.36C172.609 238.386 172.791 237.528 173.154 236.785C173.521 236.043 174.033 235.463 174.689 235.046C175.349 234.629 176.121 234.421 177.004 234.421C177.54 234.421 178.06 234.51 178.564 234.687C179.067 234.864 179.519 235.143 179.919 235.523C180.319 235.902 180.635 236.395 180.866 237.002C181.097 237.604 181.213 238.337 181.213 239.199V239.855H173.655V238.469H179.399C179.399 237.982 179.3 237.551 179.102 237.175C178.904 236.796 178.625 236.497 178.266 236.278C177.912 236.059 177.495 235.95 177.016 235.95C176.496 235.95 176.042 236.078 175.654 236.334C175.271 236.585 174.974 236.915 174.763 237.324C174.557 237.728 174.454 238.168 174.454 238.642V239.725C174.454 240.361 174.565 240.901 174.788 241.347C175.015 241.793 175.33 242.133 175.735 242.368C176.139 242.599 176.612 242.715 177.152 242.715C177.503 242.715 177.823 242.666 178.112 242.566C178.401 242.463 178.65 242.311 178.861 242.108C179.071 241.906 179.232 241.657 179.343 241.36L181.095 241.675C180.955 242.191 180.703 242.643 180.34 243.031C179.981 243.414 179.529 243.714 178.984 243.928C178.444 244.139 177.827 244.244 177.134 244.244ZM183.266 244.052V234.545H185.055V236.055H185.154C185.327 235.543 185.633 235.141 186.07 234.848C186.512 234.551 187.011 234.402 187.568 234.402C187.683 234.402 187.82 234.406 187.976 234.415C188.137 234.423 188.263 234.433 188.354 234.446V236.216C188.28 236.195 188.148 236.173 187.958 236.148C187.768 236.119 187.578 236.104 187.388 236.104C186.951 236.104 186.561 236.197 186.219 236.383C185.88 236.565 185.612 236.818 185.414 237.144C185.216 237.466 185.117 237.833 185.117 238.246V244.052H183.266ZM198.378 234.545L194.931 244.052H192.95L189.496 234.545H191.483L193.891 241.861H193.99L196.391 234.545H198.378ZM200.117 244.052V234.545H201.968V244.052H200.117ZM201.052 233.078C200.73 233.078 200.454 232.97 200.223 232.756C199.996 232.537 199.882 232.277 199.882 231.976C199.882 231.671 199.996 231.411 200.223 231.196C200.454 230.977 200.73 230.868 201.052 230.868C201.374 230.868 201.648 230.977 201.875 231.196C202.106 231.411 202.222 231.671 202.222 231.976C202.222 232.277 202.106 232.537 201.875 232.756C201.648 232.97 201.374 233.078 201.052 233.078ZM208.555 244.244C207.619 244.244 206.812 244.044 206.135 243.643C205.463 243.239 204.943 242.672 204.576 241.941C204.212 241.207 204.031 240.346 204.031 239.36C204.031 238.386 204.212 237.528 204.576 236.785C204.943 236.043 205.454 235.463 206.111 235.046C206.771 234.629 207.542 234.421 208.425 234.421C208.962 234.421 209.482 234.51 209.985 234.687C210.489 234.864 210.941 235.143 211.341 235.523C211.741 235.902 212.057 236.395 212.288 237.002C212.519 237.604 212.634 238.337 212.634 239.199V239.855H205.077V238.469H210.821C210.821 237.982 210.722 237.551 210.524 237.175C210.326 236.796 210.047 236.497 209.688 236.278C209.333 236.059 208.917 235.95 208.438 235.95C207.918 235.95 207.464 236.078 207.076 236.334C206.692 236.585 206.395 236.915 206.185 237.324C205.979 237.728 205.875 238.168 205.875 238.642V239.725C205.875 240.361 205.987 240.901 206.21 241.347C206.437 241.793 206.752 242.133 207.157 242.368C207.561 242.599 208.033 242.715 208.574 242.715C208.925 242.715 209.245 242.666 209.533 242.566C209.822 242.463 210.072 242.311 210.282 242.108C210.493 241.906 210.654 241.657 210.765 241.36L212.517 241.675C212.377 242.191 212.125 242.643 211.762 243.031C211.403 243.414 210.951 243.714 210.406 243.928C209.866 244.139 209.249 244.244 208.555 244.244ZM216.732 244.052L213.934 234.545H215.847L217.71 241.527H217.803L219.672 234.545H221.585L223.442 241.496H223.534L225.385 234.545H227.298L224.506 244.052H222.618L220.687 237.188H220.545L218.614 244.052H216.732ZM232.862 244.244C231.926 244.244 231.119 244.044 230.442 243.643C229.769 243.239 229.25 242.672 228.882 241.941C228.519 241.207 228.338 240.346 228.338 239.36C228.338 238.386 228.519 237.528 228.882 236.785C229.25 236.043 229.761 235.463 230.417 235.046C231.078 234.629 231.849 234.421 232.732 234.421C233.269 234.421 233.789 234.51 234.292 234.687C234.795 234.864 235.247 235.143 235.648 235.523C236.048 235.902 236.364 236.395 236.595 237.002C236.826 237.604 236.941 238.337 236.941 239.199V239.855H229.384V238.469H235.128C235.128 237.982 235.029 237.551 234.831 237.175C234.632 236.796 234.354 236.497 233.995 236.278C233.64 236.059 233.223 235.95 232.745 235.95C232.225 235.95 231.771 236.078 231.383 236.334C230.999 236.585 230.702 236.915 230.492 237.324C230.285 237.728 230.182 238.168 230.182 238.642V239.725C230.182 240.361 230.294 240.901 230.516 241.347C230.743 241.793 231.059 242.133 231.463 242.368C231.868 242.599 232.34 242.715 232.881 242.715C233.232 242.715 233.551 242.666 233.84 242.566C234.129 242.463 234.379 242.311 234.589 242.108C234.8 241.906 234.961 241.657 235.072 241.36L236.824 241.675C236.683 242.191 236.432 242.643 236.068 243.031C235.709 243.414 235.258 243.714 234.713 243.928C234.172 244.139 233.555 244.244 232.862 244.244ZM238.995 244.052V234.545H240.783V236.055H240.882C241.056 235.543 241.361 235.141 241.799 234.848C242.24 234.551 242.739 234.402 243.296 234.402C243.412 234.402 243.548 234.406 243.705 234.415C243.866 234.423 243.992 234.433 244.083 234.446V236.216C244.008 236.195 243.876 236.173 243.686 236.148C243.497 236.119 243.307 236.104 243.117 236.104C242.68 236.104 242.29 236.197 241.947 236.383C241.609 236.565 241.341 236.818 241.142 237.144C240.944 237.466 240.845 237.833 240.845 238.246V244.052H238.995Z" fill="#1D3157"/>
<rect x="381.827" y="227.703" width="20.6982" height="20.6982" rx="10.3491" fill="white"/>
<rect x="381.827" y="227.703" width="20.6982" height="20.6982" rx="10.3491" stroke="#D0D5DD" stroke-width="1.08938"/>
<defs>
<linearGradient id="paint0_linear_130_954" x1="36.9345" y1="81.9624" x2="36.9345" y2="115.994" gradientUnits="userSpaceOnUse">
<stop stop-color="#18ACFE"/>
<stop offset="1" stop-color="#0163E0"/>
</linearGradient>
</defs>
</svg>
