<svg width="468" height="327" viewBox="0 0 468 327" fill="none" xmlns="http://www.w3.org/2000/svg">
<path d="M410.315 43.5867H57.686C48.456 43.5867 40.9736 51.0691 40.9736 60.299V97.7026C40.9736 106.933 48.456 114.415 57.686 114.415H410.315C419.545 114.415 427.027 106.933 427.027 97.7026V60.299C427.027 51.0691 419.545 43.5867 410.315 43.5867Z" fill="white"/>
<path d="M66.5049 75.2756C66.4291 74.6032 66.1166 74.0824 65.5674 73.7131C65.0181 73.339 64.3269 73.152 63.4935 73.152C62.8969 73.152 62.3808 73.2467 61.9452 73.4361C61.5096 73.6207 61.1711 73.8764 60.9296 74.2031C60.6929 74.5251 60.5745 74.892 60.5745 75.304C60.5745 75.6496 60.655 75.9479 60.816 76.1989C60.9817 76.4498 61.1971 76.6605 61.4623 76.831C61.7322 76.9967 62.021 77.1364 62.3287 77.25C62.6365 77.3589 62.9324 77.4489 63.2165 77.5199L64.637 77.8892C65.101 78.0028 65.5769 78.1567 66.0645 78.3509C66.5522 78.545 67.0044 78.8007 67.4211 79.1179C67.8377 79.4351 68.1739 79.8281 68.4296 80.2969C68.69 80.7656 68.8202 81.3267 68.8202 81.9801C68.8202 82.804 68.6072 83.5355 68.181 84.1747C67.7596 84.8139 67.1465 85.3182 66.3415 85.6875C65.5413 86.0568 64.5731 86.2415 63.4367 86.2415C62.3477 86.2415 61.4055 86.0687 60.61 85.723C59.8145 85.3774 59.1919 84.8873 58.7421 84.2528C58.2923 83.6136 58.0437 82.8561 57.9964 81.9801H60.1981C60.2407 82.5057 60.4111 82.9437 60.7094 83.294C61.0125 83.6397 61.3983 83.8977 61.8671 84.0682C62.3406 84.2339 62.859 84.3168 63.4225 84.3168C64.0428 84.3168 64.5944 84.2197 65.0773 84.0256C65.565 83.8267 65.9485 83.5521 66.2279 83.2017C66.5073 82.8466 66.6469 82.4323 66.6469 81.9588C66.6469 81.5279 66.5238 81.1752 66.2776 80.9006C66.0361 80.6259 65.7071 80.3987 65.2904 80.2188C64.8785 80.0388 64.4121 79.8802 63.8912 79.7429L62.1725 79.2741C61.0077 78.9569 60.0844 78.4905 59.4026 77.875C58.7255 77.2595 58.387 76.4451 58.387 75.4318C58.387 74.5937 58.6143 73.8622 59.0688 73.2372C59.5233 72.6122 60.1389 72.1269 60.9154 71.7812C61.6919 71.4309 62.5679 71.2557 63.5432 71.2557C64.5281 71.2557 65.3969 71.4285 66.1498 71.7741C66.9073 72.1198 67.5039 72.5956 67.9395 73.2017C68.3751 73.803 68.6024 74.4943 68.6214 75.2756H66.5049ZM75.974 86.2202C74.8992 86.2202 73.9735 85.9905 73.197 85.5312C72.4252 85.0672 71.8286 84.4162 71.4072 83.5781C70.9906 82.7353 70.7822 81.7481 70.7822 80.6165C70.7822 79.4991 70.9906 78.5142 71.4072 77.6619C71.8286 76.8097 72.4157 76.1444 73.1686 75.6662C73.9262 75.188 74.8116 74.9489 75.8248 74.9489C76.4404 74.9489 77.037 75.0507 77.6146 75.2543C78.1923 75.4579 78.7107 75.7775 79.17 76.2131C79.6293 76.6487 79.9915 77.2145 80.2567 77.9105C80.5218 78.6018 80.6544 79.4422 80.6544 80.4318V81.1847H71.9825V79.5938H78.5734C78.5734 79.035 78.4598 78.5402 78.2325 78.1094C78.0052 77.6738 77.6856 77.3305 77.2737 77.0795C76.8665 76.8286 76.3883 76.7031 75.839 76.7031C75.2425 76.7031 74.7216 76.8499 74.2765 77.1435C73.8362 77.4323 73.4953 77.8111 73.2538 78.2798C73.0171 78.7438 72.8987 79.2481 72.8987 79.7926V81.0355C72.8987 81.7647 73.0265 82.3849 73.2822 82.8963C73.5426 83.4077 73.9049 83.7983 74.3689 84.0682C74.8329 84.3333 75.375 84.4659 75.9953 84.4659C76.3978 84.4659 76.7647 84.4091 77.0961 84.2955C77.4276 84.1771 77.714 84.0019 77.9555 83.7699C78.197 83.5379 78.3817 83.2514 78.5095 82.9105L80.5194 83.2727C80.3585 83.8646 80.0696 84.383 79.653 84.8281C79.241 85.2685 78.7226 85.6117 78.0976 85.858C77.4773 86.0994 76.7694 86.2202 75.974 86.2202ZM85.1341 71.4545V86H83.0106V71.4545H85.1341ZM92.6927 86.2202C91.6179 86.2202 90.6923 85.9905 89.9157 85.5312C89.144 85.0672 88.5474 84.4162 88.126 83.5781C87.7093 82.7353 87.501 81.7481 87.501 80.6165C87.501 79.4991 87.7093 78.5142 88.126 77.6619C88.5474 76.8097 89.1345 76.1444 89.8873 75.6662C90.6449 75.188 91.5303 74.9489 92.5436 74.9489C93.1591 74.9489 93.7557 75.0507 94.3334 75.2543C94.911 75.4579 95.4295 75.7775 95.8888 76.2131C96.348 76.6487 96.7103 77.2145 96.9754 77.9105C97.2406 78.6018 97.3731 79.4422 97.3731 80.4318V81.1847H88.7013V79.5938H95.2922C95.2922 79.035 95.1785 78.5402 94.9513 78.1094C94.724 77.6738 94.4044 77.3305 93.9925 77.0795C93.5853 76.8286 93.107 76.7031 92.5578 76.7031C91.9612 76.7031 91.4404 76.8499 90.9953 77.1435C90.555 77.4323 90.214 77.8111 89.9726 78.2798C89.7358 78.7438 89.6175 79.2481 89.6175 79.7926V81.0355C89.6175 81.7647 89.7453 82.3849 90.001 82.8963C90.2614 83.4077 90.6236 83.7983 91.0876 84.0682C91.5516 84.3333 92.0938 84.4659 92.714 84.4659C93.1165 84.4659 93.4835 84.4091 93.8149 84.2955C94.1463 84.1771 94.4328 84.0019 94.6743 83.7699C94.9157 83.5379 95.1004 83.2514 95.2282 82.9105L97.2382 83.2727C97.0772 83.8646 96.7884 84.383 96.3717 84.8281C95.9598 85.2685 95.4413 85.6117 94.8163 85.858C94.1961 86.0994 93.4882 86.2202 92.6927 86.2202ZM104.324 86.2202C103.269 86.2202 102.36 85.9811 101.597 85.5028C100.84 85.0199 100.257 84.3546 99.8501 83.5071C99.4429 82.6596 99.2393 81.6889 99.2393 80.5952C99.2393 79.4872 99.4476 78.5095 99.8643 77.6619C100.281 76.8097 100.868 76.1444 101.626 75.6662C102.383 75.188 103.276 74.9489 104.303 74.9489C105.132 74.9489 105.87 75.1027 106.519 75.4105C107.168 75.7135 107.691 76.1397 108.089 76.6889C108.491 77.2382 108.73 77.8797 108.806 78.6136H106.739C106.626 78.1023 106.365 77.6619 105.958 77.2926C105.556 76.9233 105.016 76.7386 104.339 76.7386C103.747 76.7386 103.228 76.8949 102.783 77.2074C102.343 77.5152 102 77.9555 101.753 78.5284C101.507 79.0966 101.384 79.7689 101.384 80.5455C101.384 81.3409 101.505 82.0275 101.746 82.6051C101.988 83.1828 102.329 83.6302 102.769 83.9474C103.214 84.2647 103.737 84.4233 104.339 84.4233C104.741 84.4233 105.106 84.3499 105.432 84.2031C105.764 84.0516 106.041 83.8362 106.263 83.5568C106.491 83.2775 106.649 82.9413 106.739 82.5483H108.806C108.73 83.2538 108.501 83.8835 108.117 84.4375C107.734 84.9915 107.22 85.4271 106.576 85.7443C105.937 86.0616 105.186 86.2202 104.324 86.2202ZM116.169 75.0909V76.7955H110.21V75.0909H116.169ZM111.809 72.4773H113.932V82.7969C113.932 83.2088 113.994 83.5189 114.117 83.7273C114.24 83.9309 114.398 84.0705 114.593 84.1463C114.791 84.2173 115.007 84.2528 115.239 84.2528C115.409 84.2528 115.559 84.241 115.686 84.2173C115.814 84.1937 115.914 84.1747 115.985 84.1605L116.368 85.9148C116.245 85.9621 116.07 86.0095 115.843 86.0568C115.615 86.1089 115.331 86.1373 114.99 86.142C114.432 86.1515 113.911 86.0521 113.428 85.8438C112.945 85.6354 112.554 85.3134 112.256 84.8778C111.958 84.4422 111.809 83.8954 111.809 83.2372V72.4773ZM123.811 86V75.0909H125.935V86H123.811ZM124.884 73.4077C124.514 73.4077 124.197 73.2846 123.932 73.0384C123.672 72.7874 123.541 72.4891 123.541 72.1435C123.541 71.7931 123.672 71.4948 123.932 71.2486C124.197 70.9976 124.514 70.8722 124.884 70.8722C125.253 70.8722 125.568 70.9976 125.828 71.2486C126.094 71.4948 126.226 71.7931 126.226 72.1435C126.226 72.4891 126.094 72.7874 125.828 73.0384C125.568 73.2846 125.253 73.4077 124.884 73.4077ZM130.915 79.5227V86H128.792V75.0909H130.83V76.8665H130.965C131.216 76.2888 131.609 75.8248 132.144 75.4744C132.684 75.1241 133.363 74.9489 134.182 74.9489C134.926 74.9489 135.577 75.1051 136.136 75.4176C136.694 75.7254 137.128 76.1847 137.435 76.7955C137.743 77.4062 137.897 78.1615 137.897 79.0611V86H135.773V79.3168C135.773 78.526 135.567 77.9081 135.155 77.4631C134.744 77.0133 134.178 76.7884 133.458 76.7884C132.966 76.7884 132.528 76.8949 132.144 77.108C131.765 77.321 131.465 77.6335 131.242 78.0455C131.024 78.4527 130.915 78.9451 130.915 79.5227ZM145.837 75.0909V76.7955H139.878V75.0909H145.837ZM141.476 72.4773H143.6V82.7969C143.6 83.2088 143.662 83.5189 143.785 83.7273C143.908 83.9309 144.066 84.0705 144.261 84.1463C144.459 84.2173 144.675 84.2528 144.907 84.2528C145.077 84.2528 145.226 84.241 145.354 84.2173C145.482 84.1937 145.582 84.1747 145.653 84.1605L146.036 85.9148C145.913 85.9621 145.738 86.0095 145.511 86.0568C145.283 86.1089 144.999 86.1373 144.658 86.142C144.1 86.1515 143.579 86.0521 143.096 85.8438C142.613 85.6354 142.222 85.3134 141.924 84.8778C141.626 84.4422 141.476 83.8954 141.476 83.2372V72.4773ZM152.771 86.2202C151.696 86.2202 150.77 85.9905 149.994 85.5312C149.222 85.0672 148.626 84.4162 148.204 83.5781C147.787 82.7353 147.579 81.7481 147.579 80.6165C147.579 79.4991 147.787 78.5142 148.204 77.6619C148.626 76.8097 149.213 76.1444 149.965 75.6662C150.723 75.188 151.608 74.9489 152.622 74.9489C153.237 74.9489 153.834 75.0507 154.411 75.2543C154.989 75.4579 155.508 75.7775 155.967 76.2131C156.426 76.6487 156.788 77.2145 157.054 77.9105C157.319 78.6018 157.451 79.4422 157.451 80.4318V81.1847H148.779V79.5938H155.37C155.37 79.035 155.257 78.5402 155.029 78.1094C154.802 77.6738 154.483 77.3305 154.071 77.0795C153.663 76.8286 153.185 76.7031 152.636 76.7031C152.039 76.7031 151.518 76.8499 151.073 77.1435C150.633 77.4323 150.292 77.8111 150.051 78.2798C149.814 78.7438 149.696 79.2481 149.696 79.7926V81.0355C149.696 81.7647 149.823 82.3849 150.079 82.8963C150.34 83.4077 150.702 83.7983 151.166 84.0682C151.63 84.3333 152.172 84.4659 152.792 84.4659C153.195 84.4659 153.562 84.4091 153.893 84.2955C154.224 84.1771 154.511 84.0019 154.752 83.7699C154.994 83.5379 155.179 83.2514 155.306 82.9105L157.316 83.2727C157.155 83.8646 156.867 84.383 156.45 84.8281C156.038 85.2685 155.519 85.6117 154.894 85.858C154.274 86.0994 153.566 86.2202 152.771 86.2202ZM159.807 86V75.0909H161.86V76.8239H161.974C162.172 76.2367 162.523 75.7751 163.025 75.4389C163.531 75.098 164.104 74.9276 164.744 74.9276C164.876 74.9276 165.032 74.9323 165.212 74.9418C165.397 74.9512 165.541 74.9631 165.646 74.9773V77.0085C165.56 76.9848 165.409 76.9588 165.191 76.9304C164.973 76.8973 164.755 76.8807 164.538 76.8807C164.036 76.8807 163.588 76.9872 163.195 77.2003C162.807 77.4086 162.499 77.6998 162.272 78.0739C162.045 78.4432 161.931 78.8646 161.931 79.3381V86H159.807ZM177.148 75.0909L173.192 86H170.919L166.956 75.0909H169.236L171.998 83.4858H172.112L174.868 75.0909H177.148ZM179.143 86V75.0909H181.267V86H179.143ZM180.216 73.4077C179.847 73.4077 179.529 73.2846 179.264 73.0384C179.004 72.7874 178.873 72.4891 178.873 72.1435C178.873 71.7931 179.004 71.4948 179.264 71.2486C179.529 70.9976 179.847 70.8722 180.216 70.8722C180.585 70.8722 180.9 70.9976 181.16 71.2486C181.426 71.4948 181.558 71.7931 181.558 72.1435C181.558 72.4891 181.426 72.7874 181.16 73.0384C180.9 73.2846 180.585 73.4077 180.216 73.4077ZM188.826 86.2202C187.751 86.2202 186.825 85.9905 186.049 85.5312C185.277 85.0672 184.68 84.4162 184.259 83.5781C183.842 82.7353 183.634 81.7481 183.634 80.6165C183.634 79.4991 183.842 78.5142 184.259 77.6619C184.68 76.8097 185.267 76.1444 186.02 75.6662C186.778 75.188 187.663 74.9489 188.676 74.9489C189.292 74.9489 189.889 75.0507 190.466 75.2543C191.044 75.4579 191.562 75.7775 192.022 76.2131C192.481 76.6487 192.843 77.2145 193.108 77.9105C193.373 78.6018 193.506 79.4422 193.506 80.4318V81.1847H184.834V79.5938H191.425C191.425 79.035 191.311 78.5402 191.084 78.1094C190.857 77.6738 190.537 77.3305 190.125 77.0795C189.718 76.8286 189.24 76.7031 188.691 76.7031C188.094 76.7031 187.573 76.8499 187.128 77.1435C186.688 77.4323 186.347 77.8111 186.105 78.2798C185.869 78.7438 185.75 79.2481 185.75 79.7926V81.0355C185.75 81.7647 185.878 82.3849 186.134 82.8963C186.394 83.4077 186.756 83.7983 187.22 84.0682C187.684 84.3333 188.227 84.4659 188.847 84.4659C189.249 84.4659 189.616 84.4091 189.948 84.2955C190.279 84.1771 190.566 84.0019 190.807 83.7699C191.049 83.5379 191.233 83.2514 191.361 82.9105L193.371 83.2727C193.21 83.8646 192.921 84.383 192.505 84.8281C192.093 85.2685 191.574 85.6117 190.949 85.858C190.329 86.0994 189.621 86.2202 188.826 86.2202ZM198.208 86L194.997 75.0909H197.192L199.33 83.1023H199.436L201.581 75.0909H203.776L205.907 83.0668H206.013L208.137 75.0909H210.331L207.128 86H204.962L202.746 78.1236H202.583L200.367 86H198.208ZM222.831 75.0909V76.7955H216.666V75.0909H222.831ZM218.357 86V73.8267C218.357 73.1449 218.506 72.5791 218.804 72.1293C219.103 71.6747 219.498 71.3362 219.99 71.1136C220.483 70.8864 221.018 70.7727 221.595 70.7727C222.022 70.7727 222.386 70.8082 222.689 70.8793C222.992 70.9455 223.217 71.0071 223.364 71.0639L222.867 72.7827C222.767 72.7543 222.639 72.7211 222.483 72.6832C222.327 72.6406 222.138 72.6193 221.915 72.6193C221.399 72.6193 221.03 72.7472 220.807 73.0028C220.589 73.2585 220.48 73.6278 220.48 74.1108V86H218.357ZM229.188 86.2202C228.165 86.2202 227.273 85.9858 226.51 85.517C225.748 85.0483 225.156 84.3925 224.735 83.5497C224.313 82.7069 224.103 81.7221 224.103 80.5952C224.103 79.4635 224.313 78.474 224.735 77.6264C225.156 76.7789 225.748 76.1207 226.51 75.652C227.273 75.1832 228.165 74.9489 229.188 74.9489C230.21 74.9489 231.103 75.1832 231.865 75.652C232.628 76.1207 233.219 76.7789 233.641 77.6264C234.062 78.474 234.273 79.4635 234.273 80.5952C234.273 81.7221 234.062 82.7069 233.641 83.5497C233.219 84.3925 232.628 85.0483 231.865 85.517C231.103 85.9858 230.21 86.2202 229.188 86.2202ZM229.195 84.4375C229.858 84.4375 230.407 84.2623 230.843 83.9119C231.278 83.5616 231.6 83.0952 231.809 82.5128C232.022 81.9304 232.128 81.2888 232.128 80.5881C232.128 79.892 232.022 79.2528 231.809 78.6705C231.6 78.0833 231.278 77.6122 230.843 77.2571C230.407 76.902 229.858 76.7244 229.195 76.7244C228.527 76.7244 227.973 76.902 227.533 77.2571C227.097 77.6122 226.773 78.0833 226.56 78.6705C226.352 79.2528 226.247 79.892 226.247 80.5881C226.247 81.2888 226.352 81.9304 226.56 82.5128C226.773 83.0952 227.097 83.5616 227.533 83.9119C227.973 84.2623 228.527 84.4375 229.195 84.4375ZM241.239 86.2202C240.183 86.2202 239.274 85.9811 238.511 85.5028C237.754 85.0199 237.171 84.3546 236.764 83.5071C236.357 82.6596 236.153 81.6889 236.153 80.5952C236.153 79.4872 236.362 78.5095 236.778 77.6619C237.195 76.8097 237.782 76.1444 238.54 75.6662C239.297 75.188 240.19 74.9489 241.217 74.9489C242.046 74.9489 242.784 75.1027 243.433 75.4105C244.082 75.7135 244.605 76.1397 245.003 76.6889C245.405 77.2382 245.644 77.8797 245.72 78.6136H243.653C243.54 78.1023 243.279 77.6619 242.872 77.2926C242.47 76.9233 241.93 76.7386 241.253 76.7386C240.661 76.7386 240.142 76.8949 239.697 77.2074C239.257 77.5152 238.914 77.9555 238.668 78.5284C238.421 79.0966 238.298 79.7689 238.298 80.5455C238.298 81.3409 238.419 82.0275 238.66 82.6051C238.902 83.1828 239.243 83.6302 239.683 83.9474C240.128 84.2647 240.651 84.4233 241.253 84.4233C241.655 84.4233 242.02 84.3499 242.347 84.2031C242.678 84.0516 242.955 83.8362 243.177 83.5568C243.405 83.2775 243.563 82.9413 243.653 82.5483H245.72C245.644 83.2538 245.415 83.8835 245.031 84.4375C244.648 84.9915 244.134 85.4271 243.49 85.7443C242.851 86.0616 242.1 86.2202 241.239 86.2202ZM254.902 81.4759V75.0909H257.032V86H254.944V84.1108H254.831C254.58 84.6932 254.177 85.1785 253.623 85.5668C253.074 85.9503 252.39 86.142 251.571 86.142C250.87 86.142 250.25 85.9882 249.71 85.6804C249.175 85.3679 248.753 84.9062 248.446 84.2955C248.143 83.6847 247.991 82.9295 247.991 82.0298V75.0909H250.115V81.7741C250.115 82.5175 250.321 83.1094 250.733 83.5497C251.144 83.9901 251.679 84.2102 252.338 84.2102C252.735 84.2102 253.131 84.1108 253.524 83.9119C253.921 83.7131 254.251 83.4124 254.511 83.0099C254.776 82.6075 254.906 82.0961 254.902 81.4759ZM268.06 77.7543L266.136 78.0952C266.055 77.849 265.927 77.6146 265.752 77.392C265.582 77.1695 265.35 76.9872 265.056 76.8452C264.762 76.7031 264.396 76.6321 263.955 76.6321C263.354 76.6321 262.852 76.767 262.449 77.0369C262.047 77.3021 261.846 77.6454 261.846 78.0668C261.846 78.4313 261.981 78.7249 262.251 78.9474C262.521 79.17 262.956 79.3523 263.557 79.4943L265.29 79.892C266.294 80.1241 267.042 80.4815 267.535 80.9645C268.027 81.4474 268.273 82.0748 268.273 82.8466C268.273 83.5 268.084 84.0824 267.705 84.5938C267.331 85.1004 266.808 85.4981 266.136 85.7869C265.468 86.0758 264.694 86.2202 263.813 86.2202C262.592 86.2202 261.595 85.9598 260.823 85.4389C260.051 84.9134 259.578 84.1676 259.403 83.2017L261.455 82.8892C261.583 83.4242 261.846 83.8291 262.244 84.1037C262.641 84.3736 263.16 84.5085 263.799 84.5085C264.495 84.5085 265.051 84.3641 265.468 84.0753C265.885 83.7817 266.093 83.4242 266.093 83.0028C266.093 82.6619 265.965 82.3755 265.709 82.1435C265.458 81.9115 265.073 81.7363 264.552 81.6179L262.705 81.2131C261.687 80.9811 260.934 80.6117 260.447 80.1051C259.964 79.5985 259.722 78.9569 259.722 78.1804C259.722 77.5365 259.902 76.973 260.262 76.4901C260.622 76.0071 261.119 75.6307 261.753 75.3608C262.388 75.0862 263.115 74.9489 263.934 74.9489C265.113 74.9489 266.041 75.2045 266.718 75.7159C267.395 76.2225 267.842 76.902 268.06 77.7543Z" fill="#0F1723"/>
<path d="M397.45 83.2819L388.499 73.9419L379.548 83.2819" stroke="#0F1723" stroke-width="2.335" stroke-linecap="round" stroke-linejoin="round"/>
<path d="M410.315 120.642H57.686C48.456 120.642 40.9736 128.124 40.9736 137.354V327.311C40.9736 336.541 48.456 344.023 57.686 344.023H410.315C419.545 344.023 427.027 336.541 427.027 327.311V137.354C427.027 128.124 419.545 120.642 410.315 120.642Z" fill="white"/>
<path d="M399.831 123H61.2124C51.9824 123 44.5 130.482 44.5 139.712V177.116C44.5 186.346 51.9824 193.828 61.2124 193.828H399.831C409.061 193.828 416.543 186.346 416.543 177.116V139.712C416.543 130.482 409.061 123 399.831 123Z" fill="white"/>
<path d="M402.531 196.918H63.9126C54.6826 196.918 47.2002 204.401 47.2002 213.631V251.034C47.2002 260.264 54.6826 267.747 63.9126 267.747H402.531C411.761 267.747 419.243 260.264 419.243 251.034V213.631C419.243 204.401 411.761 196.918 402.531 196.918Z" fill="#F9F9F9"/>
<path fill-rule="evenodd" clip-rule="evenodd" d="M286.712 257.701C286.191 257.939 285.749 258.321 285.438 258.802L281.059 265.574C279.896 267.374 277.156 266.972 276.559 264.914L270.4 243.703C270.074 242.578 270.553 241.528 271.373 240.954C271.733 240.65 272.173 240.455 272.64 240.393C273.107 240.331 273.582 240.405 274.009 240.605L294.095 249.79C296.044 250.681 296.042 253.45 294.092 254.338L286.712 257.701Z" fill="#08A105"/>
<path d="M316.688 258.427H303.456C293.784 258.427 285.943 266.267 285.943 275.939C285.943 285.611 293.784 293.452 303.456 293.452H316.688C326.359 293.452 334.2 285.611 334.2 275.939C334.2 266.267 326.359 258.427 316.688 258.427Z" fill="#08A105"/>
<path d="M299.26 270.06C300.097 271.654 300.924 273.252 301.743 274.855H301.757C302.585 273.292 303.259 271.944 304.209 270.06H306.4L302.677 276.694V280.999H300.731V276.694L297.039 270.06H299.26ZM309.439 281.228C307.111 281.228 305.318 279.559 305.318 277.031C305.318 274.518 307.111 272.863 309.439 272.863C311.768 272.863 313.546 274.518 313.546 277.031C313.546 279.559 311.768 281.228 309.439 281.228ZM307.157 277.031C307.157 278.502 308.061 279.712 309.439 279.712C310.819 279.712 311.722 278.502 311.722 277.031C311.722 275.56 310.819 274.349 309.439 274.349C308.061 274.349 307.157 275.56 307.157 277.031ZM314.859 277.965V273.077H316.729V277.551C316.729 278.731 317.08 279.589 318.199 279.589C319.287 279.589 320.053 278.639 320.053 276.694V273.077H321.922V280.999H320.084V279.62C319.654 280.524 318.934 281.213 317.708 281.213C315.656 281.213 314.859 279.85 314.859 277.965Z" fill="white"/>
<path d="M70.0312 154.276C69.9555 153.603 69.643 153.082 69.0938 152.713C68.5445 152.339 67.8532 152.152 67.0199 152.152C66.4233 152.152 65.9072 152.247 65.4716 152.436C65.036 152.621 64.6974 152.876 64.456 153.203C64.2192 153.525 64.1009 153.892 64.1009 154.304C64.1009 154.65 64.1813 154.948 64.3423 155.199C64.508 155.45 64.7235 155.661 64.9886 155.831C65.2585 155.997 65.5473 156.136 65.8551 156.25C66.1629 156.359 66.4588 156.449 66.7429 156.52L68.1634 156.889C68.6274 157.003 69.1032 157.157 69.5909 157.351C70.0786 157.545 70.5308 157.801 70.9474 158.118C71.3641 158.435 71.7003 158.828 71.956 159.297C72.2164 159.766 72.3466 160.327 72.3466 160.98C72.3466 161.804 72.1335 162.536 71.7074 163.175C71.286 163.814 70.6728 164.318 69.8679 164.688C69.0677 165.057 68.0994 165.241 66.9631 165.241C65.8741 165.241 64.9318 165.069 64.1364 164.723C63.3409 164.377 62.7183 163.887 62.2685 163.253C61.8187 162.614 61.5701 161.856 61.5227 160.98H63.7244C63.767 161.506 63.9375 161.944 64.2358 162.294C64.5388 162.64 64.9247 162.898 65.3935 163.068C65.867 163.234 66.3854 163.317 66.9489 163.317C67.5691 163.317 68.1207 163.22 68.6037 163.026C69.0914 162.827 69.4749 162.552 69.7543 162.202C70.0336 161.847 70.1733 161.432 70.1733 160.959C70.1733 160.528 70.0502 160.175 69.804 159.901C69.5625 159.626 69.2334 159.399 68.8168 159.219C68.4048 159.039 67.9384 158.88 67.4176 158.743L65.6989 158.274C64.5341 157.957 63.6108 157.491 62.929 156.875C62.2519 156.259 61.9134 155.445 61.9134 154.432C61.9134 153.594 62.1406 152.862 62.5952 152.237C63.0497 151.612 63.6652 151.127 64.4418 150.781C65.2183 150.431 66.0942 150.256 67.0696 150.256C68.0545 150.256 68.9233 150.429 69.6761 150.774C70.4337 151.12 71.0303 151.596 71.4659 152.202C71.9015 152.803 72.1288 153.494 72.1477 154.276H70.0312ZM76.141 169.091C75.8237 169.091 75.5349 169.065 75.2745 169.013C75.0141 168.965 74.82 168.913 74.6921 168.857L75.2035 167.116C75.5917 167.221 75.9374 167.266 76.2404 167.251C76.5434 167.237 76.811 167.124 77.043 166.911C77.2797 166.697 77.488 166.349 77.668 165.866L77.9308 165.142L73.9393 154.091H76.212L78.9748 162.557H79.0884L81.8512 154.091H84.131L79.6353 166.456C79.427 167.024 79.1618 167.505 78.8398 167.898C78.5179 168.295 78.1344 168.594 77.6893 168.793C77.2442 168.991 76.7281 169.091 76.141 169.091ZM94.3015 156.754L92.3768 157.095C92.2963 156.849 92.1684 156.615 91.9933 156.392C91.8228 156.17 91.5908 155.987 91.2972 155.845C91.0037 155.703 90.6367 155.632 90.1964 155.632C89.5951 155.632 89.0932 155.767 88.6907 156.037C88.2882 156.302 88.087 156.645 88.087 157.067C88.087 157.431 88.2219 157.725 88.4918 157.947C88.7617 158.17 89.1973 158.352 89.7987 158.494L91.5316 158.892C92.5354 159.124 93.2835 159.482 93.7759 159.964C94.2683 160.447 94.5146 161.075 94.5146 161.847C94.5146 162.5 94.3252 163.082 93.9464 163.594C93.5723 164.1 93.0491 164.498 92.3768 164.787C91.7092 165.076 90.935 165.22 90.0543 165.22C88.8327 165.22 87.8361 164.96 87.0643 164.439C86.2925 163.913 85.819 163.168 85.6438 162.202L87.6964 161.889C87.8242 162.424 88.087 162.829 88.4847 163.104C88.8825 163.374 89.4009 163.509 90.0401 163.509C90.7362 163.509 91.2925 163.364 91.7092 163.075C92.1258 162.782 92.3342 162.424 92.3342 162.003C92.3342 161.662 92.2063 161.375 91.9506 161.143C91.6997 160.911 91.3138 160.736 90.793 160.618L88.9464 160.213C87.9284 159.981 87.1755 159.612 86.6879 159.105C86.2049 158.598 85.9634 157.957 85.9634 157.18C85.9634 156.536 86.1433 155.973 86.5032 155.49C86.863 155.007 87.3602 154.631 87.9947 154.361C88.6291 154.086 89.3559 153.949 90.1751 153.949C91.354 153.949 92.2821 154.205 92.9592 154.716C93.6362 155.223 94.0837 155.902 94.3015 156.754ZM101.942 154.091V155.795H95.983V154.091H101.942ZM97.581 151.477H99.7045V161.797C99.7045 162.209 99.7661 162.519 99.8892 162.727C100.012 162.931 100.171 163.071 100.365 163.146C100.564 163.217 100.779 163.253 101.011 163.253C101.182 163.253 101.331 163.241 101.459 163.217C101.587 163.194 101.686 163.175 101.757 163.161L102.141 164.915C102.018 164.962 101.842 165.009 101.615 165.057C101.388 165.109 101.104 165.137 100.763 165.142C100.204 165.152 99.6832 165.052 99.2003 164.844C98.7173 164.635 98.3267 164.313 98.0284 163.878C97.7301 163.442 97.581 162.895 97.581 162.237V151.477ZM108.875 165.22C107.801 165.22 106.875 164.991 106.098 164.531C105.327 164.067 104.73 163.416 104.309 162.578C103.892 161.735 103.684 160.748 103.684 159.616C103.684 158.499 103.892 157.514 104.309 156.662C104.73 155.81 105.317 155.144 106.07 154.666C106.828 154.188 107.713 153.949 108.726 153.949C109.342 153.949 109.938 154.051 110.516 154.254C111.094 154.458 111.612 154.777 112.071 155.213C112.531 155.649 112.893 156.214 113.158 156.911C113.423 157.602 113.556 158.442 113.556 159.432V160.185H104.884V158.594H111.475C111.475 158.035 111.361 157.54 111.134 157.109C110.907 156.674 110.587 156.33 110.175 156.08C109.768 155.829 109.29 155.703 108.74 155.703C108.144 155.703 107.623 155.85 107.178 156.143C106.738 156.432 106.397 156.811 106.155 157.28C105.918 157.744 105.8 158.248 105.8 158.793V160.036C105.8 160.765 105.928 161.385 106.184 161.896C106.444 162.408 106.806 162.798 107.27 163.068C107.734 163.333 108.276 163.466 108.897 163.466C109.299 163.466 109.666 163.409 109.998 163.295C110.329 163.177 110.615 163.002 110.857 162.77C111.098 162.538 111.283 162.251 111.411 161.911L113.421 162.273C113.26 162.865 112.971 163.383 112.554 163.828C112.142 164.268 111.624 164.612 110.999 164.858C110.379 165.099 109.671 165.22 108.875 165.22ZM115.912 165V154.091H117.95V155.866H118.085C118.313 155.265 118.684 154.796 119.2 154.46C119.716 154.119 120.334 153.949 121.054 153.949C121.783 153.949 122.394 154.119 122.886 154.46C123.384 154.801 123.75 155.27 123.987 155.866H124.101C124.361 155.284 124.776 154.82 125.344 154.474C125.912 154.124 126.589 153.949 127.375 153.949C128.365 153.949 129.172 154.259 129.797 154.879C130.427 155.5 130.741 156.435 130.741 157.685V165H128.618V157.884C128.618 157.145 128.417 156.61 128.014 156.278C127.612 155.947 127.131 155.781 126.572 155.781C125.881 155.781 125.344 155.994 124.96 156.42C124.577 156.842 124.385 157.384 124.385 158.047V165H122.268V157.749C122.268 157.157 122.084 156.681 121.714 156.321C121.345 155.961 120.865 155.781 120.273 155.781C119.87 155.781 119.499 155.888 119.158 156.101C118.821 156.309 118.549 156.6 118.341 156.974C118.137 157.348 118.036 157.782 118.036 158.274V165H115.912ZM141.762 156.754L139.838 157.095C139.757 156.849 139.629 156.615 139.454 156.392C139.284 156.17 139.052 155.987 138.758 155.845C138.465 155.703 138.098 155.632 137.657 155.632C137.056 155.632 136.554 155.767 136.152 156.037C135.749 156.302 135.548 156.645 135.548 157.067C135.548 157.431 135.683 157.725 135.953 157.947C136.223 158.17 136.658 158.352 137.26 158.494L138.993 158.892C139.996 159.124 140.744 159.482 141.237 159.964C141.729 160.447 141.975 161.075 141.975 161.847C141.975 162.5 141.786 163.082 141.407 163.594C141.033 164.1 140.51 164.498 139.838 164.787C139.17 165.076 138.396 165.22 137.515 165.22C136.294 165.22 135.297 164.96 134.525 164.439C133.753 163.913 133.28 163.168 133.105 162.202L135.157 161.889C135.285 162.424 135.548 162.829 135.946 163.104C136.343 163.374 136.862 163.509 137.501 163.509C138.197 163.509 138.753 163.364 139.17 163.075C139.587 162.782 139.795 162.424 139.795 162.003C139.795 161.662 139.667 161.375 139.412 161.143C139.161 160.911 138.775 160.736 138.254 160.618L136.407 160.213C135.389 159.981 134.636 159.612 134.149 159.105C133.666 158.598 133.424 157.957 133.424 157.18C133.424 156.536 133.604 155.973 133.964 155.49C134.324 155.007 134.821 154.631 135.456 154.361C136.09 154.086 136.817 153.949 137.636 153.949C138.815 153.949 139.743 154.205 140.42 154.716C141.097 155.223 141.545 155.902 141.762 156.754ZM154.483 165H149.774V150.455H154.632C156.057 150.455 157.281 150.746 158.304 151.328C159.326 151.906 160.11 152.737 160.654 153.821C161.204 154.901 161.478 156.196 161.478 157.706C161.478 159.221 161.201 160.523 160.647 161.612C160.098 162.701 159.303 163.539 158.261 164.126C157.219 164.709 155.96 165 154.483 165ZM151.968 163.082H154.362C155.47 163.082 156.391 162.874 157.125 162.457C157.859 162.036 158.408 161.428 158.772 160.632C159.137 159.832 159.319 158.857 159.319 157.706C159.319 156.565 159.137 155.597 158.772 154.801C158.413 154.006 157.875 153.402 157.16 152.99C156.445 152.578 155.557 152.372 154.497 152.372H151.968V163.082ZM168.739 165.22C167.664 165.22 166.738 164.991 165.962 164.531C165.19 164.067 164.593 163.416 164.172 162.578C163.755 161.735 163.547 160.748 163.547 159.616C163.547 158.499 163.755 157.514 164.172 156.662C164.593 155.81 165.18 155.144 165.933 154.666C166.691 154.188 167.576 153.949 168.589 153.949C169.205 153.949 169.802 154.051 170.379 154.254C170.957 154.458 171.475 154.777 171.935 155.213C172.394 155.649 172.756 156.214 173.021 156.911C173.286 157.602 173.419 158.442 173.419 159.432V160.185H164.747V158.594H171.338C171.338 158.035 171.224 157.54 170.997 157.109C170.77 156.674 170.45 156.33 170.038 156.08C169.631 155.829 169.153 155.703 168.604 155.703C168.007 155.703 167.486 155.85 167.041 156.143C166.601 156.432 166.26 156.811 166.018 157.28C165.782 157.744 165.663 158.248 165.663 158.793V160.036C165.663 160.765 165.791 161.385 166.047 161.896C166.307 162.408 166.67 162.798 167.134 163.068C167.598 163.333 168.14 163.466 168.76 163.466C169.162 163.466 169.529 163.409 169.861 163.295C170.192 163.177 170.479 163.002 170.72 162.77C170.962 162.538 171.146 162.251 171.274 161.911L173.284 162.273C173.123 162.865 172.834 163.383 172.418 163.828C172.006 164.268 171.487 164.612 170.862 164.858C170.242 165.099 169.534 165.22 168.739 165.22ZM183.95 156.754L182.025 157.095C181.945 156.849 181.817 156.615 181.642 156.392C181.471 156.17 181.239 155.987 180.946 155.845C180.652 155.703 180.285 155.632 179.845 155.632C179.243 155.632 178.742 155.767 178.339 156.037C177.937 156.302 177.735 156.645 177.735 157.067C177.735 157.431 177.87 157.725 178.14 157.947C178.41 158.17 178.846 158.352 179.447 158.494L181.18 158.892C182.184 159.124 182.932 159.482 183.424 159.964C183.917 160.447 184.163 161.075 184.163 161.847C184.163 162.5 183.974 163.082 183.595 163.594C183.221 164.1 182.698 164.498 182.025 164.787C181.358 165.076 180.583 165.22 179.703 165.22C178.481 165.22 177.484 164.96 176.713 164.439C175.941 163.913 175.467 163.168 175.292 162.202L177.345 161.889C177.473 162.424 177.735 162.829 178.133 163.104C178.531 163.374 179.049 163.509 179.689 163.509C180.385 163.509 180.941 163.364 181.358 163.075C181.774 162.782 181.983 162.424 181.983 162.003C181.983 161.662 181.855 161.375 181.599 161.143C181.348 160.911 180.962 160.736 180.441 160.618L178.595 160.213C177.577 159.981 176.824 159.612 176.336 159.105C175.853 158.598 175.612 157.957 175.612 157.18C175.612 156.536 175.792 155.973 176.152 155.49C176.511 155.007 177.009 154.631 177.643 154.361C178.278 154.086 179.004 153.949 179.824 153.949C181.002 153.949 181.931 154.205 182.608 154.716C183.285 155.223 183.732 155.902 183.95 156.754ZM186.498 165V154.091H188.621V165H186.498ZM187.57 152.408C187.201 152.408 186.884 152.285 186.619 152.038C186.358 151.787 186.228 151.489 186.228 151.143C186.228 150.793 186.358 150.495 186.619 150.249C186.884 149.998 187.201 149.872 187.57 149.872C187.94 149.872 188.254 149.998 188.515 150.249C188.78 150.495 188.913 150.793 188.913 151.143C188.913 151.489 188.78 151.787 188.515 152.038C188.254 152.285 187.94 152.408 187.57 152.408ZM196.052 169.318C195.186 169.318 194.44 169.205 193.815 168.977C193.195 168.75 192.688 168.449 192.295 168.075C191.902 167.701 191.609 167.292 191.414 166.847L193.24 166.094C193.368 166.302 193.538 166.522 193.751 166.754C193.969 166.991 194.262 167.192 194.632 167.358C195.006 167.524 195.486 167.607 196.074 167.607C196.878 167.607 197.544 167.41 198.069 167.017C198.595 166.629 198.858 166.009 198.858 165.156V163.011H198.723C198.595 163.243 198.41 163.501 198.169 163.786C197.932 164.07 197.605 164.316 197.189 164.524C196.772 164.732 196.23 164.837 195.562 164.837C194.7 164.837 193.924 164.635 193.233 164.233C192.546 163.826 192.002 163.227 191.599 162.436C191.201 161.641 191.002 160.663 191.002 159.503C191.002 158.343 191.199 157.348 191.592 156.52C191.99 155.691 192.534 155.057 193.225 154.616C193.917 154.171 194.7 153.949 195.576 153.949C196.253 153.949 196.8 154.062 197.217 154.29C197.634 154.512 197.958 154.773 198.19 155.071C198.427 155.369 198.609 155.632 198.737 155.859H198.893V154.091H200.974V165.241C200.974 166.179 200.756 166.948 200.321 167.55C199.885 168.151 199.296 168.596 198.552 168.885C197.814 169.174 196.98 169.318 196.052 169.318ZM196.031 163.075C196.642 163.075 197.158 162.933 197.579 162.649C198.005 162.36 198.327 161.948 198.545 161.413C198.768 160.874 198.879 160.227 198.879 159.474C198.879 158.741 198.77 158.094 198.552 157.536C198.334 156.977 198.015 156.541 197.593 156.229C197.172 155.911 196.651 155.753 196.031 155.753C195.392 155.753 194.859 155.919 194.433 156.25C194.007 156.577 193.685 157.022 193.467 157.585C193.254 158.149 193.147 158.778 193.147 159.474C193.147 160.189 193.256 160.817 193.474 161.357C193.692 161.896 194.014 162.318 194.44 162.621C194.871 162.924 195.401 163.075 196.031 163.075ZM205.946 158.523V165H203.822V154.091H205.86V155.866H205.995C206.246 155.289 206.639 154.825 207.174 154.474C207.714 154.124 208.394 153.949 209.213 153.949C209.956 153.949 210.607 154.105 211.166 154.418C211.725 154.725 212.158 155.185 212.466 155.795C212.773 156.406 212.927 157.161 212.927 158.061V165H210.804V158.317C210.804 157.526 210.598 156.908 210.186 156.463C209.774 156.013 209.208 155.788 208.488 155.788C207.996 155.788 207.558 155.895 207.174 156.108C206.796 156.321 206.495 156.634 206.272 157.045C206.055 157.453 205.946 157.945 205.946 158.523Z" fill="#0F1723"/>
<path d="M66.8068 314H62.098V299.455H66.956C68.3812 299.455 69.6051 299.746 70.6278 300.328C71.6506 300.906 72.4342 301.737 72.9787 302.821C73.5279 303.901 73.8026 305.196 73.8026 306.706C73.8026 308.221 73.5256 309.523 72.9716 310.612C72.4223 311.701 71.6269 312.539 70.5852 313.126C69.5436 313.709 68.2841 314 66.8068 314ZM64.2926 312.082H66.6861C67.794 312.082 68.715 311.874 69.4489 311.457C70.1828 311.036 70.732 310.428 71.0966 309.632C71.4612 308.832 71.6435 307.857 71.6435 306.706C71.6435 305.565 71.4612 304.597 71.0966 303.801C70.7367 303.006 70.1993 302.402 69.4844 301.99C68.7694 301.578 67.8816 301.372 66.821 301.372H64.2926V312.082ZM79.5359 314.241C78.8446 314.241 78.2196 314.114 77.6609 313.858C77.1022 313.598 76.6594 313.221 76.3327 312.729C76.0108 312.236 75.8498 311.633 75.8498 310.918C75.8498 310.302 75.9682 309.795 76.2049 309.398C76.4416 309 76.7612 308.685 77.1637 308.453C77.5662 308.221 78.016 308.046 78.5131 307.928C79.0103 307.809 79.5169 307.719 80.033 307.658C80.6864 307.582 81.2167 307.52 81.6239 307.473C82.0311 307.421 82.3271 307.338 82.5117 307.224C82.6964 307.111 82.7887 306.926 82.7887 306.67V306.621C82.7887 306 82.6135 305.52 82.2631 305.179C81.9175 304.838 81.4014 304.668 80.7148 304.668C79.9999 304.668 79.4364 304.826 79.0245 305.143C78.6173 305.456 78.3356 305.804 78.1793 306.188L76.1836 305.733C76.4203 305.07 76.766 304.535 77.2205 304.128C77.6798 303.716 78.2077 303.418 78.8043 303.233C79.4009 303.044 80.0283 302.949 80.6864 302.949C81.122 302.949 81.5837 303.001 82.0714 303.105C82.5638 303.205 83.0231 303.389 83.4492 303.659C83.8801 303.929 84.2328 304.315 84.5075 304.817C84.7821 305.314 84.9194 305.96 84.9194 306.756V314H82.8455V312.509H82.7603C82.623 312.783 82.417 313.053 82.1424 313.318C81.8678 313.583 81.515 313.804 81.0842 313.979C80.6533 314.154 80.1372 314.241 79.5359 314.241ZM79.9975 312.537C80.5846 312.537 81.0865 312.421 81.5032 312.189C81.9246 311.957 82.2442 311.654 82.462 311.28C82.6845 310.901 82.7958 310.496 82.7958 310.065V308.659C82.7201 308.735 82.5733 308.806 82.3555 308.872C82.1424 308.934 81.8986 308.988 81.6239 309.036C81.3493 309.078 81.0818 309.118 80.8214 309.156C80.561 309.189 80.3432 309.218 80.168 309.241C79.756 309.294 79.3796 309.381 79.0387 309.504C78.7025 309.627 78.4326 309.805 78.229 310.037C78.0302 310.264 77.9308 310.567 77.9308 310.946C77.9308 311.472 78.1249 311.869 78.5131 312.139C78.9014 312.404 79.3962 312.537 79.9975 312.537ZM92.8402 303.091V304.795H86.8814V303.091H92.8402ZM88.4794 300.477H90.603V310.797C90.603 311.209 90.6645 311.519 90.7876 311.727C90.9107 311.931 91.0694 312.071 91.2635 312.146C91.4624 312.217 91.6778 312.253 91.9098 312.253C92.0803 312.253 92.2294 312.241 92.3572 312.217C92.4851 312.194 92.5845 312.175 92.6555 312.161L93.0391 313.915C92.916 313.962 92.7408 314.009 92.5135 314.057C92.2862 314.109 92.0021 314.137 91.6612 314.142C91.1025 314.152 90.5817 314.052 90.0987 313.844C89.6158 313.635 89.2251 313.313 88.9268 312.878C88.6286 312.442 88.4794 311.895 88.4794 311.237V300.477ZM98.364 314.241C97.6727 314.241 97.0477 314.114 96.489 313.858C95.9303 313.598 95.4876 313.221 95.1609 312.729C94.8389 312.236 94.6779 311.633 94.6779 310.918C94.6779 310.302 94.7963 309.795 95.033 309.398C95.2698 309 95.5894 308.685 95.9918 308.453C96.3943 308.221 96.8441 308.046 97.3413 307.928C97.8384 307.809 98.3451 307.719 98.8612 307.658C99.5146 307.582 100.045 307.52 100.452 307.473C100.859 307.421 101.155 307.338 101.34 307.224C101.525 307.111 101.617 306.926 101.617 306.67V306.621C101.617 306 101.442 305.52 101.091 305.179C100.746 304.838 100.23 304.668 99.543 304.668C98.828 304.668 98.2646 304.826 97.8526 305.143C97.4454 305.456 97.1637 305.804 97.0075 306.188L95.0117 305.733C95.2485 305.07 95.5941 304.535 96.0487 304.128C96.5079 303.716 97.0359 303.418 97.6325 303.233C98.229 303.044 98.8564 302.949 99.5146 302.949C99.9502 302.949 100.412 303.001 100.9 303.105C101.392 303.205 101.851 303.389 102.277 303.659C102.708 303.929 103.061 304.315 103.336 304.817C103.61 305.314 103.748 305.96 103.748 306.756V314H101.674V312.509H101.588C101.451 312.783 101.245 313.053 100.971 313.318C100.696 313.583 100.343 313.804 99.9123 313.979C99.4814 314.154 98.9653 314.241 98.364 314.241ZM98.8256 312.537C99.4128 312.537 99.9147 312.421 100.331 312.189C100.753 311.957 101.072 311.654 101.29 311.28C101.513 310.901 101.624 310.496 101.624 310.065V308.659C101.548 308.735 101.401 308.806 101.184 308.872C100.971 308.934 100.727 308.988 100.452 309.036C100.177 309.078 99.9099 309.118 99.6495 309.156C99.3891 309.189 99.1713 309.218 98.9961 309.241C98.5842 309.294 98.2077 309.381 97.8668 309.504C97.5307 309.627 97.2608 309.805 97.0572 310.037C96.8583 310.264 96.7589 310.567 96.7589 310.946C96.7589 311.472 96.953 311.869 97.3413 312.139C97.7295 312.404 98.2243 312.537 98.8256 312.537ZM120.044 305.754L118.119 306.095C118.038 305.849 117.911 305.615 117.735 305.392C117.565 305.17 117.333 304.987 117.039 304.845C116.746 304.703 116.379 304.632 115.939 304.632C115.337 304.632 114.835 304.767 114.433 305.037C114.03 305.302 113.829 305.645 113.829 306.067C113.829 306.431 113.964 306.725 114.234 306.947C114.504 307.17 114.94 307.352 115.541 307.494L117.274 307.892C118.278 308.124 119.026 308.482 119.518 308.964C120.011 309.447 120.257 310.075 120.257 310.847C120.257 311.5 120.067 312.082 119.689 312.594C119.315 313.1 118.791 313.498 118.119 313.787C117.451 314.076 116.677 314.22 115.797 314.22C114.575 314.22 113.578 313.96 112.806 313.439C112.035 312.913 111.561 312.168 111.386 311.202L113.439 310.889C113.566 311.424 113.829 311.829 114.227 312.104C114.625 312.374 115.143 312.509 115.782 312.509C116.478 312.509 117.035 312.364 117.451 312.075C117.868 311.782 118.076 311.424 118.076 311.003C118.076 310.662 117.949 310.375 117.693 310.143C117.442 309.911 117.056 309.736 116.535 309.618L114.689 309.213C113.671 308.981 112.918 308.612 112.43 308.105C111.947 307.598 111.706 306.957 111.706 306.18C111.706 305.536 111.886 304.973 112.245 304.49C112.605 304.007 113.102 303.631 113.737 303.361C114.371 303.086 115.098 302.949 115.917 302.949C117.096 302.949 118.024 303.205 118.701 303.716C119.378 304.223 119.826 304.902 120.044 305.754ZM127.187 314.22C126.131 314.22 125.222 313.981 124.46 313.503C123.702 313.02 123.12 312.355 122.712 311.507C122.305 310.66 122.102 309.689 122.102 308.595C122.102 307.487 122.31 306.509 122.727 305.662C123.143 304.81 123.73 304.144 124.488 303.666C125.246 303.188 126.138 302.949 127.165 302.949C127.994 302.949 128.733 303.103 129.381 303.411C130.03 303.714 130.553 304.14 130.951 304.689C131.353 305.238 131.593 305.88 131.668 306.614H129.602C129.488 306.102 129.228 305.662 128.82 305.293C128.418 304.923 127.878 304.739 127.201 304.739C126.609 304.739 126.091 304.895 125.646 305.207C125.205 305.515 124.862 305.955 124.616 306.528C124.37 307.097 124.246 307.769 124.246 308.545C124.246 309.341 124.367 310.027 124.609 310.605C124.85 311.183 125.191 311.63 125.631 311.947C126.076 312.265 126.6 312.423 127.201 312.423C127.603 312.423 127.968 312.35 128.295 312.203C128.626 312.052 128.903 311.836 129.126 311.557C129.353 311.277 129.512 310.941 129.602 310.548H131.668C131.593 311.254 131.363 311.884 130.979 312.438C130.596 312.991 130.082 313.427 129.438 313.744C128.799 314.062 128.049 314.22 127.187 314.22ZM133.939 314V303.091H136.063V314H133.939ZM135.012 301.408C134.642 301.408 134.325 301.285 134.06 301.038C133.8 300.787 133.669 300.489 133.669 300.143C133.669 299.793 133.8 299.495 134.06 299.249C134.325 298.998 134.642 298.872 135.012 298.872C135.381 298.872 135.696 298.998 135.956 299.249C136.221 299.495 136.354 299.793 136.354 300.143C136.354 300.489 136.221 300.787 135.956 301.038C135.696 301.285 135.381 301.408 135.012 301.408ZM143.621 314.22C142.547 314.22 141.621 313.991 140.844 313.531C140.073 313.067 139.476 312.416 139.055 311.578C138.638 310.735 138.43 309.748 138.43 308.616C138.43 307.499 138.638 306.514 139.055 305.662C139.476 304.81 140.063 304.144 140.816 303.666C141.574 303.188 142.459 302.949 143.472 302.949C144.088 302.949 144.684 303.051 145.262 303.254C145.84 303.458 146.358 303.777 146.817 304.213C147.277 304.649 147.639 305.214 147.904 305.911C148.169 306.602 148.302 307.442 148.302 308.432V309.185H139.63V307.594H146.221C146.221 307.035 146.107 306.54 145.88 306.109C145.653 305.674 145.333 305.33 144.921 305.08C144.514 304.829 144.036 304.703 143.487 304.703C142.89 304.703 142.369 304.85 141.924 305.143C141.484 305.432 141.143 305.811 140.901 306.28C140.665 306.744 140.546 307.248 140.546 307.793V309.036C140.546 309.765 140.674 310.385 140.93 310.896C141.19 311.408 141.552 311.798 142.016 312.068C142.48 312.333 143.022 312.466 143.643 312.466C144.045 312.466 144.412 312.409 144.744 312.295C145.075 312.177 145.362 312.002 145.603 311.77C145.844 311.538 146.029 311.251 146.157 310.911L148.167 311.273C148.006 311.865 147.717 312.383 147.3 312.828C146.888 313.268 146.37 313.612 145.745 313.858C145.125 314.099 144.417 314.22 143.621 314.22ZM152.782 307.523V314H150.658V303.091H152.696V304.866H152.831C153.082 304.289 153.475 303.825 154.01 303.474C154.55 303.124 155.23 302.949 156.049 302.949C156.792 302.949 157.443 303.105 158.002 303.418C158.56 303.725 158.994 304.185 159.301 304.795C159.609 305.406 159.763 306.161 159.763 307.061V314H157.64V307.317C157.64 306.526 157.434 305.908 157.022 305.463C156.61 305.013 156.044 304.788 155.324 304.788C154.832 304.788 154.394 304.895 154.01 305.108C153.632 305.321 153.331 305.634 153.108 306.045C152.891 306.453 152.782 306.945 152.782 307.523ZM167.206 314.22C166.15 314.22 165.241 313.981 164.479 313.503C163.721 313.02 163.139 312.355 162.732 311.507C162.325 310.66 162.121 309.689 162.121 308.595C162.121 307.487 162.329 306.509 162.746 305.662C163.163 304.81 163.75 304.144 164.507 303.666C165.265 303.188 166.158 302.949 167.185 302.949C168.014 302.949 168.752 303.103 169.401 303.411C170.05 303.714 170.573 304.14 170.971 304.689C171.373 305.238 171.612 305.88 171.688 306.614H169.621C169.507 306.102 169.247 305.662 168.84 305.293C168.437 304.923 167.898 304.739 167.221 304.739C166.629 304.739 166.11 304.895 165.665 305.207C165.225 305.515 164.882 305.955 164.635 306.528C164.389 307.097 164.266 307.769 164.266 308.545C164.266 309.341 164.387 310.027 164.628 310.605C164.87 311.183 165.211 311.63 165.651 311.947C166.096 312.265 166.619 312.423 167.221 312.423C167.623 312.423 167.988 312.35 168.314 312.203C168.646 312.052 168.923 311.836 169.145 311.557C169.373 311.277 169.531 310.941 169.621 310.548H171.688C171.612 311.254 171.382 311.884 170.999 312.438C170.615 312.991 170.102 313.427 169.458 313.744C168.819 314.062 168.068 314.22 167.206 314.22ZM178.661 314.22C177.586 314.22 176.66 313.991 175.884 313.531C175.112 313.067 174.515 312.416 174.094 311.578C173.677 310.735 173.469 309.748 173.469 308.616C173.469 307.499 173.677 306.514 174.094 305.662C174.515 304.81 175.102 304.144 175.855 303.666C176.613 303.188 177.498 302.949 178.511 302.949C179.127 302.949 179.723 303.051 180.301 303.254C180.879 303.458 181.397 303.777 181.857 304.213C182.316 304.649 182.678 305.214 182.943 305.911C183.208 306.602 183.341 307.442 183.341 308.432V309.185H174.669V307.594H181.26C181.26 307.035 181.146 306.54 180.919 306.109C180.692 305.674 180.372 305.33 179.96 305.08C179.553 304.829 179.075 304.703 178.526 304.703C177.929 304.703 177.408 304.85 176.963 305.143C176.523 305.432 176.182 305.811 175.94 306.28C175.704 306.744 175.585 307.248 175.585 307.793V309.036C175.585 309.765 175.713 310.385 175.969 310.896C176.229 311.408 176.591 311.798 177.055 312.068C177.519 312.333 178.062 312.466 178.682 312.466C179.084 312.466 179.451 312.409 179.783 312.295C180.114 312.177 180.401 312.002 180.642 311.77C180.884 311.538 181.068 311.251 181.196 310.911L183.206 311.273C183.045 311.865 182.756 312.383 182.339 312.828C181.928 313.268 181.409 313.612 180.784 313.858C180.164 314.099 179.456 314.22 178.661 314.22Z" fill="#0F1723"/>
<path d="M65.8068 241H61.098V226.455H65.956C67.3812 226.455 68.6051 226.746 69.6278 227.328C70.6506 227.906 71.4342 228.737 71.9787 229.821C72.5279 230.901 72.8026 232.196 72.8026 233.706C72.8026 235.221 72.5256 236.523 71.9716 237.612C71.4223 238.701 70.6269 239.539 69.5852 240.126C68.5436 240.709 67.2841 241 65.8068 241ZM63.2926 239.082H65.6861C66.794 239.082 67.715 238.874 68.4489 238.457C69.1828 238.036 69.732 237.428 70.0966 236.632C70.4612 235.832 70.6435 234.857 70.6435 233.706C70.6435 232.565 70.4612 231.597 70.0966 230.801C69.7367 230.006 69.1993 229.402 68.4844 228.99C67.7694 228.578 66.8816 228.372 65.821 228.372H63.2926V239.082ZM78.5359 241.241C77.8446 241.241 77.2196 241.114 76.6609 240.858C76.1022 240.598 75.6594 240.221 75.3327 239.729C75.0108 239.236 74.8498 238.633 74.8498 237.918C74.8498 237.302 74.9682 236.795 75.2049 236.398C75.4416 236 75.7612 235.685 76.1637 235.453C76.5662 235.221 77.016 235.046 77.5131 234.928C78.0103 234.809 78.5169 234.719 79.033 234.658C79.6864 234.582 80.2167 234.52 80.6239 234.473C81.0311 234.421 81.3271 234.338 81.5117 234.224C81.6964 234.111 81.7887 233.926 81.7887 233.67V233.621C81.7887 233 81.6135 232.52 81.2631 232.179C80.9175 231.838 80.4014 231.668 79.7148 231.668C78.9999 231.668 78.4364 231.826 78.0245 232.143C77.6173 232.456 77.3356 232.804 77.1793 233.188L75.1836 232.733C75.4203 232.07 75.766 231.535 76.2205 231.128C76.6798 230.716 77.2077 230.418 77.8043 230.233C78.4009 230.044 79.0283 229.949 79.6864 229.949C80.122 229.949 80.5837 230.001 81.0714 230.105C81.5638 230.205 82.0231 230.389 82.4492 230.659C82.8801 230.929 83.2328 231.315 83.5075 231.817C83.7821 232.314 83.9194 232.96 83.9194 233.756V241H81.8455V239.509H81.7603C81.623 239.783 81.417 240.053 81.1424 240.318C80.8678 240.583 80.515 240.804 80.0842 240.979C79.6533 241.154 79.1372 241.241 78.5359 241.241ZM78.9975 239.537C79.5846 239.537 80.0865 239.421 80.5032 239.189C80.9246 238.957 81.2442 238.654 81.462 238.28C81.6845 237.901 81.7958 237.496 81.7958 237.065V235.659C81.7201 235.735 81.5733 235.806 81.3555 235.872C81.1424 235.934 80.8986 235.988 80.6239 236.036C80.3493 236.078 80.0818 236.118 79.8214 236.156C79.561 236.189 79.3432 236.218 79.168 236.241C78.756 236.294 78.3796 236.381 78.0387 236.504C77.7025 236.627 77.4326 236.805 77.229 237.037C77.0302 237.264 76.9308 237.567 76.9308 237.946C76.9308 238.472 77.1249 238.869 77.5131 239.139C77.9014 239.404 78.3962 239.537 78.9975 239.537ZM91.8402 230.091V231.795H85.8814V230.091H91.8402ZM87.4794 227.477H89.603V237.797C89.603 238.209 89.6645 238.519 89.7876 238.727C89.9107 238.931 90.0694 239.071 90.2635 239.146C90.4624 239.217 90.6778 239.253 90.9098 239.253C91.0803 239.253 91.2294 239.241 91.3572 239.217C91.4851 239.194 91.5845 239.175 91.6555 239.161L92.0391 240.915C91.916 240.962 91.7408 241.009 91.5135 241.057C91.2862 241.109 91.0021 241.137 90.6612 241.142C90.1025 241.152 89.5817 241.052 89.0987 240.844C88.6158 240.635 88.2251 240.313 87.9268 239.878C87.6286 239.442 87.4794 238.895 87.4794 238.237V227.477ZM97.364 241.241C96.6727 241.241 96.0477 241.114 95.489 240.858C94.9303 240.598 94.4876 240.221 94.1609 239.729C93.8389 239.236 93.6779 238.633 93.6779 237.918C93.6779 237.302 93.7963 236.795 94.033 236.398C94.2698 236 94.5894 235.685 94.9918 235.453C95.3943 235.221 95.8441 235.046 96.3413 234.928C96.8384 234.809 97.3451 234.719 97.8612 234.658C98.5146 234.582 99.0449 234.52 99.4521 234.473C99.8593 234.421 100.155 234.338 100.34 234.224C100.525 234.111 100.617 233.926 100.617 233.67V233.621C100.617 233 100.442 232.52 100.091 232.179C99.7456 231.838 99.2295 231.668 98.543 231.668C97.828 231.668 97.2646 231.826 96.8526 232.143C96.4454 232.456 96.1637 232.804 96.0075 233.188L94.0117 232.733C94.2485 232.07 94.5941 231.535 95.0487 231.128C95.5079 230.716 96.0359 230.418 96.6325 230.233C97.229 230.044 97.8564 229.949 98.5146 229.949C98.9502 229.949 99.4118 230.001 99.8995 230.105C100.392 230.205 100.851 230.389 101.277 230.659C101.708 230.929 102.061 231.315 102.336 231.817C102.61 232.314 102.748 232.96 102.748 233.756V241H100.674V239.509H100.588C100.451 239.783 100.245 240.053 99.9705 240.318C99.6959 240.583 99.3432 240.804 98.9123 240.979C98.4814 241.154 97.9653 241.241 97.364 241.241ZM97.8256 239.537C98.4128 239.537 98.9147 239.421 99.3313 239.189C99.7527 238.957 100.072 238.654 100.29 238.28C100.513 237.901 100.624 237.496 100.624 237.065V235.659C100.548 235.735 100.401 235.806 100.184 235.872C99.9705 235.934 99.7267 235.988 99.4521 236.036C99.1774 236.078 98.9099 236.118 98.6495 236.156C98.3891 236.189 98.1713 236.218 97.9961 236.241C97.5842 236.294 97.2077 236.381 96.8668 236.504C96.5307 236.627 96.2608 236.805 96.0572 237.037C95.8583 237.264 95.7589 237.567 95.7589 237.946C95.7589 238.472 95.953 238.869 96.3413 239.139C96.7295 239.404 97.2243 239.537 97.8256 239.537ZM118.973 230.276C118.897 229.603 118.584 229.082 118.035 228.713C117.486 228.339 116.795 228.152 115.961 228.152C115.365 228.152 114.849 228.247 114.413 228.436C113.977 228.621 113.639 228.876 113.397 229.203C113.161 229.525 113.042 229.892 113.042 230.304C113.042 230.65 113.123 230.948 113.284 231.199C113.449 231.45 113.665 231.661 113.93 231.831C114.2 231.997 114.489 232.136 114.797 232.25C115.104 232.359 115.4 232.449 115.684 232.52L117.105 232.889C117.569 233.003 118.045 233.157 118.532 233.351C119.02 233.545 119.472 233.801 119.889 234.118C120.306 234.435 120.642 234.828 120.897 235.297C121.158 235.766 121.288 236.327 121.288 236.98C121.288 237.804 121.075 238.536 120.649 239.175C120.227 239.814 119.614 240.318 118.809 240.688C118.009 241.057 117.041 241.241 115.904 241.241C114.815 241.241 113.873 241.069 113.078 240.723C112.282 240.377 111.66 239.887 111.21 239.253C110.76 238.614 110.511 237.856 110.464 236.98H112.666C112.708 237.506 112.879 237.944 113.177 238.294C113.48 238.64 113.866 238.898 114.335 239.068C114.808 239.234 115.327 239.317 115.89 239.317C116.511 239.317 117.062 239.22 117.545 239.026C118.033 238.827 118.416 238.552 118.696 238.202C118.975 237.847 119.115 237.432 119.115 236.959C119.115 236.528 118.992 236.175 118.745 235.901C118.504 235.626 118.175 235.399 117.758 235.219C117.346 235.039 116.88 234.88 116.359 234.743L114.64 234.274C113.475 233.957 112.552 233.491 111.87 232.875C111.193 232.259 110.855 231.445 110.855 230.432C110.855 229.594 111.082 228.862 111.537 228.237C111.991 227.612 112.607 227.127 113.383 226.781C114.16 226.431 115.036 226.256 116.011 226.256C116.996 226.256 117.865 226.429 118.618 226.774C119.375 227.12 119.972 227.596 120.407 228.202C120.843 228.803 121.07 229.494 121.089 230.276H118.973ZM128.832 230.091V231.795H122.874V230.091H128.832ZM124.472 227.477H126.595V237.797C126.595 238.209 126.657 238.519 126.78 238.727C126.903 238.931 127.062 239.071 127.256 239.146C127.455 239.217 127.67 239.253 127.902 239.253C128.072 239.253 128.222 239.241 128.349 239.217C128.477 239.194 128.577 239.175 128.648 239.161L129.031 240.915C128.908 240.962 128.733 241.009 128.506 241.057C128.278 241.109 127.994 241.137 127.653 241.142C127.095 241.152 126.574 241.052 126.091 240.844C125.608 240.635 125.217 240.313 124.919 239.878C124.621 239.442 124.472 238.895 124.472 238.237V227.477ZM131.181 241V230.091H133.234V231.824H133.348C133.547 231.237 133.897 230.775 134.399 230.439C134.905 230.098 135.478 229.928 136.118 229.928C136.25 229.928 136.406 229.932 136.586 229.942C136.771 229.951 136.915 229.963 137.02 229.977V232.009C136.934 231.985 136.783 231.959 136.565 231.93C136.347 231.897 136.129 231.881 135.912 231.881C135.41 231.881 134.962 231.987 134.569 232.2C134.181 232.409 133.873 232.7 133.646 233.074C133.419 233.443 133.305 233.865 133.305 234.338V241H131.181ZM145.768 236.476V230.091H147.898V241H145.81V239.111H145.697C145.446 239.693 145.043 240.179 144.489 240.567C143.94 240.95 143.256 241.142 142.437 241.142C141.736 241.142 141.116 240.988 140.576 240.68C140.041 240.368 139.62 239.906 139.312 239.295C139.009 238.685 138.857 237.929 138.857 237.03V230.091H140.981V236.774C140.981 237.518 141.187 238.109 141.599 238.55C142.011 238.99 142.546 239.21 143.204 239.21C143.602 239.21 143.997 239.111 144.39 238.912C144.788 238.713 145.117 238.412 145.377 238.01C145.642 237.607 145.772 237.096 145.768 236.476ZM155.347 241.22C154.291 241.22 153.382 240.981 152.62 240.503C151.862 240.02 151.28 239.355 150.873 238.507C150.465 237.66 150.262 236.689 150.262 235.595C150.262 234.487 150.47 233.509 150.887 232.662C151.303 231.81 151.891 231.144 152.648 230.666C153.406 230.188 154.298 229.949 155.326 229.949C156.154 229.949 156.893 230.103 157.542 230.411C158.19 230.714 158.713 231.14 159.111 231.689C159.514 232.238 159.753 232.88 159.828 233.614H157.762C157.648 233.102 157.388 232.662 156.98 232.293C156.578 231.923 156.038 231.739 155.361 231.739C154.769 231.739 154.251 231.895 153.806 232.207C153.365 232.515 153.022 232.955 152.776 233.528C152.53 234.097 152.407 234.769 152.407 235.545C152.407 236.341 152.527 237.027 152.769 237.605C153.01 238.183 153.351 238.63 153.792 238.947C154.237 239.265 154.76 239.423 155.361 239.423C155.764 239.423 156.128 239.35 156.455 239.203C156.786 239.052 157.063 238.836 157.286 238.557C157.513 238.277 157.672 237.941 157.762 237.548H159.828C159.753 238.254 159.523 238.884 159.14 239.438C158.756 239.991 158.242 240.427 157.598 240.744C156.959 241.062 156.209 241.22 155.347 241.22ZM167.192 230.091V231.795H161.233V230.091H167.192ZM162.831 227.477H164.955V237.797C164.955 238.209 165.016 238.519 165.139 238.727C165.262 238.931 165.421 239.071 165.615 239.146C165.814 239.217 166.029 239.253 166.261 239.253C166.432 239.253 166.581 239.241 166.709 239.217C166.837 239.194 166.936 239.175 167.007 239.161L167.391 240.915C167.268 240.962 167.092 241.009 166.865 241.057C166.638 241.109 166.354 241.137 166.013 241.142C165.454 241.152 164.933 241.052 164.45 240.844C163.967 240.635 163.577 240.313 163.278 239.878C162.98 239.442 162.831 238.895 162.831 238.237V227.477ZM176.451 236.476V230.091H178.582V241H176.494V239.111H176.38C176.129 239.693 175.727 240.179 175.173 240.567C174.624 240.95 173.94 241.142 173.12 241.142C172.42 241.142 171.799 240.988 171.26 240.68C170.725 240.368 170.303 239.906 169.995 239.295C169.692 238.685 169.541 237.929 169.541 237.03V230.091H171.664V236.774C171.664 237.518 171.87 238.109 172.282 238.55C172.694 238.99 173.229 239.21 173.887 239.21C174.285 239.21 174.681 239.111 175.074 238.912C175.471 238.713 175.8 238.412 176.061 238.01C176.326 237.607 176.456 237.096 176.451 236.476ZM181.435 241V230.091H183.488V231.824H183.602C183.8 231.237 184.151 230.775 184.653 230.439C185.159 230.098 185.732 229.928 186.371 229.928C186.504 229.928 186.66 229.932 186.84 229.942C187.025 229.951 187.169 229.963 187.273 229.977V232.009C187.188 231.985 187.037 231.959 186.819 231.93C186.601 231.897 186.383 231.881 186.165 231.881C185.664 231.881 185.216 231.987 184.823 232.2C184.435 232.409 184.127 232.7 183.9 233.074C183.673 233.443 183.559 233.865 183.559 234.338V241H181.435ZM193.422 241.22C192.347 241.22 191.422 240.991 190.645 240.531C189.873 240.067 189.277 239.416 188.855 238.578C188.439 237.735 188.23 236.748 188.23 235.616C188.23 234.499 188.439 233.514 188.855 232.662C189.277 231.81 189.864 231.144 190.617 230.666C191.374 230.188 192.26 229.949 193.273 229.949C193.889 229.949 194.485 230.051 195.063 230.254C195.641 230.458 196.159 230.777 196.618 231.213C197.078 231.649 197.44 232.214 197.705 232.911C197.97 233.602 198.103 234.442 198.103 235.432V236.185H189.431V234.594H196.022C196.022 234.035 195.908 233.54 195.681 233.109C195.453 232.674 195.134 232.33 194.722 232.08C194.315 231.829 193.837 231.703 193.287 231.703C192.691 231.703 192.17 231.85 191.725 232.143C191.284 232.432 190.944 232.811 190.702 233.28C190.465 233.744 190.347 234.248 190.347 234.793V236.036C190.347 236.765 190.475 237.385 190.73 237.896C190.991 238.408 191.353 238.798 191.817 239.068C192.281 239.333 192.823 239.466 193.444 239.466C193.846 239.466 194.213 239.409 194.544 239.295C194.876 239.177 195.162 239.002 195.404 238.77C195.645 238.538 195.83 238.251 195.958 237.911L197.968 238.273C197.807 238.865 197.518 239.383 197.101 239.828C196.689 240.268 196.171 240.612 195.546 240.858C194.926 241.099 194.218 241.22 193.422 241.22ZM208.634 232.754L206.709 233.095C206.628 232.849 206.5 232.615 206.325 232.392C206.155 232.17 205.923 231.987 205.629 231.845C205.336 231.703 204.969 231.632 204.528 231.632C203.927 231.632 203.425 231.767 203.023 232.037C202.62 232.302 202.419 232.645 202.419 233.067C202.419 233.431 202.554 233.725 202.824 233.947C203.094 234.17 203.529 234.352 204.131 234.494L205.864 234.892C206.867 235.124 207.616 235.482 208.108 235.964C208.6 236.447 208.847 237.075 208.847 237.847C208.847 238.5 208.657 239.082 208.278 239.594C207.904 240.1 207.381 240.498 206.709 240.787C206.041 241.076 205.267 241.22 204.386 241.22C203.165 241.22 202.168 240.96 201.396 240.439C200.625 239.913 200.151 239.168 199.976 238.202L202.028 237.889C202.156 238.424 202.419 238.829 202.817 239.104C203.214 239.374 203.733 239.509 204.372 239.509C205.068 239.509 205.625 239.364 206.041 239.075C206.458 238.782 206.666 238.424 206.666 238.003C206.666 237.662 206.538 237.375 206.283 237.143C206.032 236.911 205.646 236.736 205.125 236.618L203.278 236.213C202.26 235.981 201.508 235.612 201.02 235.105C200.537 234.598 200.295 233.957 200.295 233.18C200.295 232.536 200.475 231.973 200.835 231.49C201.195 231.007 201.692 230.631 202.327 230.361C202.961 230.086 203.688 229.949 204.507 229.949C205.686 229.949 206.614 230.205 207.291 230.716C207.968 231.223 208.416 231.902 208.634 232.754ZM219.649 241.241C218.958 241.241 218.333 241.114 217.774 240.858C217.215 240.598 216.773 240.221 216.446 239.729C216.124 239.236 215.963 238.633 215.963 237.918C215.963 237.302 216.081 236.795 216.318 236.398C216.555 236 216.875 235.685 217.277 235.453C217.679 235.221 218.129 235.046 218.626 234.928C219.124 234.809 219.63 234.719 220.146 234.658C220.8 234.582 221.33 234.52 221.737 234.473C222.144 234.421 222.44 234.338 222.625 234.224C222.81 234.111 222.902 233.926 222.902 233.67V233.621C222.902 233 222.727 232.52 222.376 232.179C222.031 231.838 221.515 231.668 220.828 231.668C220.113 231.668 219.55 231.826 219.138 232.143C218.731 232.456 218.449 232.804 218.293 233.188L216.297 232.733C216.534 232.07 216.879 231.535 217.334 231.128C217.793 230.716 218.321 230.418 218.918 230.233C219.514 230.044 220.142 229.949 220.8 229.949C221.235 229.949 221.697 230.001 222.185 230.105C222.677 230.205 223.136 230.389 223.562 230.659C223.993 230.929 224.346 231.315 224.621 231.817C224.895 232.314 225.033 232.96 225.033 233.756V241H222.959V239.509H222.874C222.736 239.783 222.53 240.053 222.256 240.318C221.981 240.583 221.628 240.804 221.197 240.979C220.767 241.154 220.25 241.241 219.649 241.241ZM220.111 239.537C220.698 239.537 221.2 239.421 221.616 239.189C222.038 238.957 222.357 238.654 222.575 238.28C222.798 237.901 222.909 237.496 222.909 237.065V235.659C222.833 235.735 222.687 235.806 222.469 235.872C222.256 235.934 222.012 235.988 221.737 236.036C221.463 236.078 221.195 236.118 220.935 236.156C220.674 236.189 220.456 236.218 220.281 236.241C219.869 236.294 219.493 236.381 219.152 236.504C218.816 236.627 218.546 236.805 218.342 237.037C218.143 237.264 218.044 237.567 218.044 237.946C218.044 238.472 218.238 238.869 218.626 239.139C219.015 239.404 219.509 239.537 220.111 239.537ZM229.985 234.523V241H227.861V230.091H229.9V231.866H230.034C230.285 231.289 230.678 230.825 231.213 230.474C231.753 230.124 232.433 229.949 233.252 229.949C233.995 229.949 234.646 230.105 235.205 230.418C235.764 230.725 236.197 231.185 236.505 231.795C236.812 232.406 236.966 233.161 236.966 234.061V241H234.843V234.317C234.843 233.526 234.637 232.908 234.225 232.463C233.813 232.013 233.247 231.788 232.527 231.788C232.035 231.788 231.597 231.895 231.213 232.108C230.835 232.321 230.534 232.634 230.311 233.045C230.094 233.453 229.985 233.945 229.985 234.523ZM243.898 241.213C243.017 241.213 242.231 240.988 241.54 240.538C240.854 240.084 240.314 239.437 239.921 238.599C239.533 237.757 239.338 236.746 239.338 235.567C239.338 234.388 239.535 233.379 239.928 232.541C240.326 231.703 240.87 231.062 241.561 230.616C242.253 230.171 243.036 229.949 243.912 229.949C244.589 229.949 245.134 230.062 245.546 230.29C245.962 230.512 246.284 230.773 246.512 231.071C246.744 231.369 246.924 231.632 247.051 231.859H247.179V226.455H249.303V241H247.229V239.303H247.051C246.924 239.535 246.739 239.8 246.498 240.098C246.261 240.396 245.934 240.657 245.517 240.879C245.101 241.102 244.561 241.213 243.898 241.213ZM244.367 239.402C244.978 239.402 245.494 239.241 245.915 238.919C246.341 238.592 246.663 238.14 246.881 237.562C247.104 236.985 247.215 236.312 247.215 235.545C247.215 234.788 247.106 234.125 246.888 233.557C246.67 232.989 246.351 232.546 245.929 232.229C245.508 231.911 244.987 231.753 244.367 231.753C243.728 231.753 243.195 231.919 242.769 232.25C242.343 232.581 242.021 233.034 241.803 233.607C241.59 234.179 241.483 234.826 241.483 235.545C241.483 236.275 241.592 236.93 241.81 237.513C242.028 238.095 242.35 238.557 242.776 238.898C243.207 239.234 243.737 239.402 244.367 239.402ZM260.801 241.241C260.11 241.241 259.485 241.114 258.926 240.858C258.368 240.598 257.925 240.221 257.598 239.729C257.276 239.236 257.115 238.633 257.115 237.918C257.115 237.302 257.234 236.795 257.471 236.398C257.707 236 258.027 235.685 258.429 235.453C258.832 235.221 259.282 235.046 259.779 234.928C260.276 234.809 260.783 234.719 261.299 234.658C261.952 234.582 262.482 234.52 262.89 234.473C263.297 234.421 263.593 234.338 263.777 234.224C263.962 234.111 264.054 233.926 264.054 233.67V233.621C264.054 233 263.879 232.52 263.529 232.179C263.183 231.838 262.667 231.668 261.98 231.668C261.266 231.668 260.702 231.826 260.29 232.143C259.883 232.456 259.601 232.804 259.445 233.188L257.449 232.733C257.686 232.07 258.032 231.535 258.486 231.128C258.945 230.716 259.473 230.418 260.07 230.233C260.667 230.044 261.294 229.949 261.952 229.949C262.388 229.949 262.849 230.001 263.337 230.105C263.829 230.205 264.289 230.389 264.715 230.659C265.146 230.929 265.498 231.315 265.773 231.817C266.048 232.314 266.185 232.96 266.185 233.756V241H264.111V239.509H264.026C263.889 239.783 263.683 240.053 263.408 240.318C263.133 240.583 262.781 240.804 262.35 240.979C261.919 241.154 261.403 241.241 260.801 241.241ZM261.263 239.537C261.85 239.537 262.352 239.421 262.769 239.189C263.19 238.957 263.51 238.654 263.728 238.28C263.95 237.901 264.061 237.496 264.061 237.065V235.659C263.986 235.735 263.839 235.806 263.621 235.872C263.408 235.934 263.164 235.988 262.89 236.036C262.615 236.078 262.347 236.118 262.087 236.156C261.827 236.189 261.609 236.218 261.434 236.241C261.022 236.294 260.645 236.381 260.304 236.504C259.968 236.627 259.698 236.805 259.495 237.037C259.296 237.264 259.196 237.567 259.196 237.946C259.196 238.472 259.391 238.869 259.779 239.139C260.167 239.404 260.662 239.537 261.263 239.537ZM271.137 226.455V241H269.013V226.455H271.137ZM278.568 245.318C277.701 245.318 276.956 245.205 276.331 244.977C275.71 244.75 275.204 244.449 274.811 244.075C274.418 243.701 274.124 243.292 273.93 242.847L275.755 242.094C275.883 242.302 276.054 242.522 276.267 242.754C276.484 242.991 276.778 243.192 277.147 243.358C277.521 243.524 278.002 243.607 278.589 243.607C279.394 243.607 280.059 243.41 280.585 243.017C281.11 242.629 281.373 242.009 281.373 241.156V239.011H281.238C281.11 239.243 280.926 239.501 280.684 239.786C280.448 240.07 280.121 240.316 279.704 240.524C279.288 240.732 278.745 240.837 278.078 240.837C277.216 240.837 276.44 240.635 275.748 240.233C275.062 239.826 274.517 239.227 274.115 238.436C273.717 237.641 273.518 236.663 273.518 235.503C273.518 234.343 273.715 233.348 274.108 232.52C274.505 231.691 275.05 231.057 275.741 230.616C276.432 230.171 277.216 229.949 278.092 229.949C278.769 229.949 279.316 230.062 279.733 230.29C280.149 230.512 280.474 230.773 280.706 231.071C280.942 231.369 281.125 231.632 281.252 231.859H281.409V230.091H283.49V241.241C283.49 242.179 283.272 242.948 282.836 243.55C282.401 244.151 281.811 244.596 281.068 244.885C280.329 245.174 279.496 245.318 278.568 245.318ZM278.547 239.075C279.157 239.075 279.673 238.933 280.095 238.649C280.521 238.36 280.843 237.948 281.061 237.413C281.283 236.874 281.395 236.227 281.395 235.474C281.395 234.741 281.286 234.094 281.068 233.536C280.85 232.977 280.53 232.541 280.109 232.229C279.688 231.911 279.167 231.753 278.547 231.753C277.907 231.753 277.375 231.919 276.949 232.25C276.522 232.577 276.2 233.022 275.983 233.585C275.77 234.149 275.663 234.778 275.663 235.474C275.663 236.189 275.772 236.817 275.99 237.357C276.208 237.896 276.529 238.318 276.956 238.621C277.386 238.924 277.917 239.075 278.547 239.075ZM290.933 241.22C289.91 241.22 289.018 240.986 288.255 240.517C287.493 240.048 286.901 239.393 286.48 238.55C286.058 237.707 285.848 236.722 285.848 235.595C285.848 234.464 286.058 233.474 286.48 232.626C286.901 231.779 287.493 231.121 288.255 230.652C289.018 230.183 289.91 229.949 290.933 229.949C291.956 229.949 292.848 230.183 293.61 230.652C294.373 231.121 294.965 231.779 295.386 232.626C295.807 233.474 296.018 234.464 296.018 235.595C296.018 236.722 295.807 237.707 295.386 238.55C294.965 239.393 294.373 240.048 293.61 240.517C292.848 240.986 291.956 241.22 290.933 241.22ZM290.94 239.438C291.603 239.438 292.152 239.262 292.588 238.912C293.023 238.562 293.345 238.095 293.554 237.513C293.767 236.93 293.873 236.289 293.873 235.588C293.873 234.892 293.767 234.253 293.554 233.67C293.345 233.083 293.023 232.612 292.588 232.257C292.152 231.902 291.603 231.724 290.94 231.724C290.272 231.724 289.718 231.902 289.278 232.257C288.842 232.612 288.518 233.083 288.305 233.67C288.097 234.253 287.993 234.892 287.993 235.588C287.993 236.289 288.097 236.93 288.305 237.513C288.518 238.095 288.842 238.562 289.278 238.912C289.718 239.262 290.272 239.438 290.94 239.438ZM298.388 241V230.091H300.441V231.824H300.555C300.754 231.237 301.104 230.775 301.606 230.439C302.112 230.098 302.685 229.928 303.325 229.928C303.457 229.928 303.613 229.932 303.793 229.942C303.978 229.951 304.122 229.963 304.227 229.977V232.009C304.141 231.985 303.99 231.959 303.772 231.93C303.554 231.897 303.336 231.881 303.119 231.881C302.617 231.881 302.169 231.987 301.776 232.2C301.388 232.409 301.08 232.7 300.853 233.074C300.626 233.443 300.512 233.865 300.512 234.338V241H298.388ZM306.064 241V230.091H308.188V241H306.064ZM307.137 228.408C306.767 228.408 306.45 228.285 306.185 228.038C305.925 227.787 305.794 227.489 305.794 227.143C305.794 226.793 305.925 226.495 306.185 226.249C306.45 225.998 306.767 225.872 307.137 225.872C307.506 225.872 307.821 225.998 308.081 226.249C308.346 226.495 308.479 226.793 308.479 227.143C308.479 227.489 308.346 227.787 308.081 228.038C307.821 228.285 307.506 228.408 307.137 228.408ZM316.137 230.091V231.795H310.178V230.091H316.137ZM311.776 227.477H313.9V237.797C313.9 238.209 313.961 238.519 314.085 238.727C314.208 238.931 314.366 239.071 314.56 239.146C314.759 239.217 314.975 239.253 315.207 239.253C315.377 239.253 315.526 239.241 315.654 239.217C315.782 239.194 315.881 239.175 315.952 239.161L316.336 240.915C316.213 240.962 316.038 241.009 315.81 241.057C315.583 241.109 315.299 241.137 314.958 241.142C314.399 241.152 313.879 241.052 313.396 240.844C312.913 240.635 312.522 240.313 312.224 239.878C311.925 239.442 311.776 238.895 311.776 238.237V227.477ZM320.844 234.523V241H318.721V226.455H320.816V231.866H320.951C321.206 231.279 321.597 230.813 322.123 230.467C322.648 230.122 323.335 229.949 324.182 229.949C324.93 229.949 325.584 230.103 326.142 230.411C326.706 230.718 327.141 231.178 327.449 231.788C327.762 232.394 327.918 233.152 327.918 234.061V241H325.794V234.317C325.794 233.517 325.588 232.896 325.176 232.456C324.765 232.011 324.192 231.788 323.458 231.788C322.956 231.788 322.506 231.895 322.108 232.108C321.715 232.321 321.405 232.634 321.178 233.045C320.955 233.453 320.844 233.945 320.844 234.523ZM330.752 241V230.091H332.79V231.866H332.925C333.152 231.265 333.524 230.796 334.04 230.46C334.556 230.119 335.174 229.949 335.894 229.949C336.623 229.949 337.234 230.119 337.726 230.46C338.223 230.801 338.59 231.27 338.827 231.866H338.941C339.201 231.284 339.615 230.82 340.184 230.474C340.752 230.124 341.429 229.949 342.215 229.949C343.204 229.949 344.012 230.259 344.637 230.879C345.266 231.5 345.581 232.435 345.581 233.685V241H343.458V233.884C343.458 233.145 343.257 232.61 342.854 232.278C342.452 231.947 341.971 231.781 341.412 231.781C340.721 231.781 340.184 231.994 339.8 232.42C339.417 232.842 339.225 233.384 339.225 234.047V241H337.108V233.749C337.108 233.157 336.924 232.681 336.554 232.321C336.185 231.961 335.704 231.781 335.113 231.781C334.71 231.781 334.338 231.888 333.998 232.101C333.661 232.309 333.389 232.6 333.181 232.974C332.977 233.348 332.875 233.782 332.875 234.274V241H330.752ZM356.602 232.754L354.678 233.095C354.597 232.849 354.469 232.615 354.294 232.392C354.124 232.17 353.892 231.987 353.598 231.845C353.304 231.703 352.938 231.632 352.497 231.632C351.896 231.632 351.394 231.767 350.991 232.037C350.589 232.302 350.388 232.645 350.388 233.067C350.388 233.431 350.523 233.725 350.793 233.947C351.063 234.17 351.498 234.352 352.099 234.494L353.832 234.892C354.836 235.124 355.584 235.482 356.077 235.964C356.569 236.447 356.815 237.075 356.815 237.847C356.815 238.5 356.626 239.082 356.247 239.594C355.873 240.1 355.35 240.498 354.678 240.787C354.01 241.076 353.236 241.22 352.355 241.22C351.134 241.22 350.137 240.96 349.365 240.439C348.593 239.913 348.12 239.168 347.945 238.202L349.997 237.889C350.125 238.424 350.388 238.829 350.786 239.104C351.183 239.374 351.702 239.509 352.341 239.509C353.037 239.509 353.593 239.364 354.01 239.075C354.427 238.782 354.635 238.424 354.635 238.003C354.635 237.662 354.507 237.375 354.251 237.143C354 236.911 353.615 236.736 353.094 236.618L351.247 236.213C350.229 235.981 349.476 235.612 348.989 235.105C348.506 234.598 348.264 233.957 348.264 233.18C348.264 232.536 348.444 231.973 348.804 231.49C349.164 231.007 349.661 230.631 350.295 230.361C350.93 230.086 351.657 229.949 352.476 229.949C353.655 229.949 354.583 230.205 355.26 230.716C355.937 231.223 356.384 231.902 356.602 232.754Z" fill="#0F1723"/>
</svg>
