<svg width="420" height="236" viewBox="0 0 420 236" fill="none" xmlns="http://www.w3.org/2000/svg">
<rect x="0.481651" y="1.20187" width="419.037" height="234.083" rx="11.078" fill="white"/>
<rect x="0.481651" y="1.20187" width="419.037" height="234.083" rx="11.078" stroke="#D0D5DD" stroke-width="0.963303"/>
<path fill-rule="evenodd" clip-rule="evenodd" d="M23.9428 74.5873C25.3347 81.5847 28.4464 88.1026 32.9702 93.5653C34.3858 95.2747 36.9468 95.2637 38.5162 93.6943C40.0856 92.1249 40.0646 89.5931 38.6852 87.8544C33.9715 81.9131 31.1563 74.3975 31.1563 66.2243C31.1563 46.9885 46.75 31.3949 65.9857 31.3949C85.2215 31.3949 100.815 46.9885 100.815 66.2243C100.815 74.3972 98.0001 81.9126 93.2868 87.8538C91.9073 89.5927 91.8863 92.1246 93.4558 93.6941C95.0253 95.2636 97.5866 95.2746 99.0023 93.5651C103.526 88.1024 106.638 81.5846 108.029 74.5873C109.683 66.2719 108.835 57.6528 105.59 49.8199C102.346 41.987 96.8512 35.2921 89.8017 30.5818C82.7523 25.8715 74.4644 23.3574 65.9861 23.3574C57.5078 23.3574 49.22 25.8715 42.1705 30.5818C35.1211 35.2921 29.6267 41.987 26.3822 49.8199C23.1377 57.6528 22.2888 66.2719 23.9428 74.5873Z" fill="#DDE1E6"/>
<path fill-rule="evenodd" clip-rule="evenodd" d="M26.2677 82.3498C27.9192 86.4174 30.1825 90.1997 32.9729 93.5685C34.3871 95.276 36.9455 95.265 38.5133 93.6973C40.081 92.1295 40.06 89.6004 38.6829 87.8628C37.0085 85.7501 35.5834 83.4481 34.4378 81.0025C33.492 78.9868 32.7336 76.8656 32.1852 74.6615C31.4583 71.7495 31.1091 68.7489 31.1516 65.7341C31.1891 63.069 31.5322 60.4237 32.1699 57.8491C32.7298 55.5809 33.5119 53.4002 34.4919 51.3315C36.3418 47.4193 38.9059 43.8833 42.055 40.9067C44.7803 38.3306 47.8994 36.2155 51.2889 34.6384C53.2137 33.7412 55.2341 33.0149 57.3306 32.4788C60.6293 31.6327 64.0408 31.2732 67.4565 31.4174C69.9847 31.5242 72.4872 31.9059 74.9209 32.5516C76.7419 33.0336 78.5045 33.6593 80.1957 34.416C80.427 34.5193 80.6573 34.6253 80.8866 34.7337C83.8841 36.1521 86.6576 37.9882 89.1264 40.1819C90.7838 41.6545 93.3077 41.8178 94.9611 40.3408C96.6146 38.8637 96.7696 36.31 95.1444 34.8019C91.9379 31.8265 88.2889 29.3539 84.3206 27.4762C79.1404 25.025 73.5212 23.6375 67.7954 23.3956C62.0696 23.1537 56.3534 24.0624 50.9849 26.068C45.6163 28.0735 40.7044 31.1351 36.5396 35.0718C32.3748 39.0085 29.0417 43.7404 26.7373 48.9876C24.4329 54.2348 23.204 59.8908 23.1234 65.6211C23.0427 71.3515 24.1119 77.0398 26.2677 82.3498Z" fill="#05A105"/>
<path d="M61.534 98.4568H62.0081V101.053H61.8162C60.9582 101.053 60.1944 101.181 59.5246 101.437C58.8548 101.693 58.2866 102.058 57.82 102.532C57.3609 102.999 57.0072 103.563 56.7588 104.225C56.518 104.888 56.3976 105.629 56.3976 106.449V109.181C56.3976 109.768 56.454 110.287 56.5669 110.739C56.6873 111.183 56.8567 111.555 57.0749 111.857C57.3007 112.15 57.5641 112.372 57.8651 112.523C58.1662 112.666 58.5048 112.737 58.8811 112.737C59.2348 112.737 59.5547 112.662 59.8407 112.511C60.1342 112.361 60.3825 112.15 60.5857 111.879C60.7964 111.601 60.9545 111.277 61.0598 110.908C61.1727 110.532 61.2292 110.122 61.2292 109.678C61.2292 109.234 61.1727 108.824 61.0598 108.447C60.9545 108.071 60.7964 107.747 60.5857 107.476C60.375 107.198 60.1191 106.984 59.8181 106.833C59.517 106.683 59.1784 106.607 58.8021 106.607C58.2903 106.607 57.8388 106.728 57.4474 106.968C57.0636 107.202 56.7626 107.503 56.5443 107.872C56.3261 108.24 56.2095 108.628 56.1944 109.034L55.2123 108.402C55.2349 107.823 55.3553 107.273 55.5735 106.754C55.7993 106.235 56.1079 105.776 56.4992 105.377C56.8981 104.97 57.376 104.654 57.9329 104.429C58.4898 104.195 59.1182 104.079 59.8181 104.079C60.5857 104.079 61.2593 104.225 61.8388 104.519C62.4258 104.812 62.9149 105.215 63.3063 105.727C63.6976 106.238 63.9911 106.829 64.1868 107.499C64.3825 108.169 64.4803 108.884 64.4803 109.644C64.4803 110.442 64.3486 111.183 64.0852 111.868C63.8293 112.553 63.4568 113.151 62.9676 113.663C62.486 114.174 61.9065 114.573 61.2292 114.859C60.5518 115.145 59.7917 115.288 58.9488 115.288C58.0758 115.288 57.2819 115.13 56.5669 114.814C55.8595 114.491 55.2499 114.039 54.7382 113.46C54.2264 112.88 53.8313 112.191 53.5528 111.394C53.2819 110.596 53.1464 109.723 53.1464 108.775V107.51C53.1464 106.186 53.3384 104.974 53.7222 103.875C54.1135 102.769 54.6742 101.813 55.4042 101.008C56.1342 100.195 57.0147 99.5669 58.0457 99.1228C59.0768 98.6788 60.2395 98.4568 61.534 98.4568ZM77.5865 98.6261V100.376L71.231 115.062H67.7992L74.1547 101.166H65.9704V98.6261H77.5865Z" fill="#05A105"/>
<rect x="130.046" y="33.4722" width="257.202" height="11.5596" rx="5.77982" fill="#DDE1E6"/>
<rect x="130.046" y="52.7383" width="257.202" height="11.5596" rx="5.77982" fill="#DDE1E6"/>
<rect x="130.046" y="72.0044" width="257.202" height="11.5596" rx="5.77982" fill="#DDE1E6"/>
<rect x="130.046" y="91.27" width="189.771" height="11.5596" rx="5.77982" fill="#DDE1E6"/>
<circle cx="28.899" cy="137.509" r="5.77982" fill="#D9D9D9"/>
<rect x="44.3115" y="131.729" width="352.569" height="11.5596" rx="5.77982" fill="#DDE1E6"/>
<rect x="44.3115" y="154.849" width="312.11" height="11.5596" rx="5.77982" fill="#DDE1E6"/>
<circle cx="28.899" cy="183.748" r="5.77982" fill="#D9D9D9"/>
<rect x="44.3115" y="177.968" width="352.569" height="11.5596" rx="5.77982" fill="#DDE1E6"/>
<rect x="44.3115" y="201.087" width="275.505" height="11.5596" rx="5.77982" fill="#DDE1E6"/>
</svg>
